<?xml version="1.0" standalone="no"?>
<!DOCTYPE svg PUBLIC "-//W3C//DTD SVG 20010904//EN"
 "http://www.w3.org/TR/2001/REC-SVG-20010904/DTD/svg10.dtd">
<svg version="1.0" xmlns="http://www.w3.org/2000/svg"
 width="320.000000pt" height="420.000000pt" viewBox="0 0 320.000000 420.000000"
 preserveAspectRatio="xMidYMid meet">

<g transform="translate(0.000000,420.000000) scale(0.100000,-0.100000)"
fill="#000000" stroke="none">
<path d="M0 2100 l0 -2100 1600 0 1600 0 0 2100 0 2100 -1600 0 -1600 0 0
-2100z m1761 1306 c5 3 9 0 9 -5 0 -13 -6 -13 -39 -4 -23 6 -23 7 -5 13 10 4
21 3 22 -1 2 -5 8 -7 13 -3z m-101 -21 c-5 -14 -8 -25 -5 -25 2 0 -1 -13 -6
-30 -8 -23 -8 -33 3 -43 17 -18 68 -31 68 -17 0 5 7 10 15 10 9 0 15 9 15 25
0 30 -16 33 -25 6 -4 -14 -15 -19 -35 -19 -34 1 -37 12 -15 64 11 26 19 34 31
30 8 -3 20 -6 25 -6 5 0 9 -9 9 -19 0 -17 18 -31 41 -31 5 0 8 8 7 18 -4 55 0
62 45 62 45 0 79 -15 62 -27 -12 -9 -17 -86 -6 -78 5 2 11 18 14 35 4 20 12
30 24 30 14 0 15 -2 5 -9 -11 -7 -11 -9 1 -14 13 -5 35 20 25 28 -2 1 -12 8
-23 14 -18 11 -16 12 14 7 18 -3 40 -6 47 -6 8 0 14 -9 14 -20 0 -11 -4 -20
-10 -20 -5 0 -10 -7 -10 -16 0 -10 7 -14 18 -12 9 2 16 10 14 18 -2 7 0 20 4
29 5 13 8 12 13 -7 3 -13 11 -22 16 -22 6 1 9 6 7 11 -3 12 47 0 73 -17 11 -8
30 -14 42 -14 13 0 32 -9 43 -20 11 -11 27 -20 35 -20 9 0 15 -9 15 -21 0 -18
2 -19 15 -9 12 10 20 9 40 -4 14 -9 24 -20 23 -24 -4 -13 13 -52 23 -52 12 0
12 17 -1 25 -5 3 -10 12 -10 18 0 7 9 1 20 -13 11 -14 20 -21 20 -17 0 5 18
-6 41 -24 29 -23 37 -34 28 -40 -7 -4 -16 -6 -20 -3 -4 2 -10 0 -14 -6 -6 -10
20 -14 58 -11 21 3 22 -11 2 -49 -21 -40 -10 -38 15 3 11 17 20 27 20 20 0
-19 -22 -63 -32 -63 -5 0 -6 -5 -2 -11 8 -13 18 -4 38 36 9 17 16 23 16 14 0
-9 -10 -28 -21 -43 -29 -37 -13 -48 17 -12 41 47 46 22 7 -34 -15 -23 -14 -22
15 4 17 16 34 28 36 25 25 -25 96 -159 96 -181 0 -15 5 -27 11 -25 6 1 19 -19
30 -45 10 -27 14 -48 9 -48 -6 0 -10 -4 -10 -10 0 -5 6 -10 14 -10 8 0 17 -7
20 -16 11 -28 6 -54 -9 -54 -7 0 -18 -6 -22 -13 -25 -41 -105 -63 -117 -32 -4
10 1 15 14 15 11 0 20 -6 21 -12 0 -9 2 -9 6 1 5 11 7 11 14 0 7 -11 9 -10 9
4 0 12 -8 17 -27 17 -16 0 -45 3 -65 6 -35 6 -38 5 -38 -17 1 -24 1 -24 16 -4
l15 20 15 -20 c14 -18 13 -20 -5 -23 -12 -2 -21 -10 -21 -18 0 -18 -16 -18
-24 1 -4 10 -15 13 -38 10 -26 -4 -29 -3 -13 4 18 9 18 10 -7 10 -36 1 -58 -8
-58 -26 0 -8 -18 -22 -40 -30 -24 -10 -39 -21 -36 -29 3 -7 -13 -24 -35 -38
-21 -15 -39 -33 -39 -41 0 -8 -16 -25 -35 -37 -19 -13 -35 -30 -35 -39 0 -35
-26 -52 -75 -51 -42 0 -55 -5 -93 -36 -35 -29 -45 -33 -53 -21 -4 8 -6 22 -3
32 3 9 1 17 -5 17 -6 0 -11 -7 -11 -15 0 -18 -21 -20 -38 -3 -9 9 -12 9 -12
-1 0 -19 -23 -38 -40 -34 -10 3 -9 0 3 -7 9 -6 22 -8 27 -5 6 3 10 -3 10 -14
0 -11 -4 -23 -10 -26 -5 -3 -10 1 -10 9 0 9 -4 16 -10 16 -5 0 -7 -6 -4 -14 5
-14 -39 -31 -56 -21 -5 3 -11 1 -15 -5 -9 -15 -43 -12 -72 7 -25 17 -26 16
-49 -12 -13 -17 -24 -37 -23 -45 0 -12 3 -11 12 3 7 10 18 26 25 35 11 15 12
14 3 -5 -16 -33 -13 -39 7 -15 l18 21 17 -29 c21 -35 22 -50 2 -50 -8 0 -15 7
-15 15 0 8 -4 15 -10 15 -17 0 -11 -21 13 -40 24 -21 66 -17 80 7 5 8 16 11
28 8 14 -5 17 -2 13 8 -5 15 30 43 62 49 25 4 28 -37 5 -71 -15 -23 -15 -25 1
-18 10 3 20 2 23 -3 10 -17 28 -11 21 6 -9 25 12 45 40 38 18 -5 24 -2 24 10
0 13 46 46 65 46 15 0 1 -17 -26 -33 -27 -15 -31 -22 -26 -46 8 -38 -10 -52
-65 -51 -49 1 -148 -20 -148 -32 0 -21 -19 -5 -22 19 -3 28 -28 45 -28 19 0
-9 -8 -16 -19 -16 -10 0 -25 -10 -34 -22 -8 -13 -18 -19 -23 -14 -5 5 -4 11 4
13 6 3 12 9 12 14 0 6 -4 8 -8 5 -5 -3 -19 13 -32 35 -17 31 -25 38 -31 28
-15 -25 -9 -89 12 -132 27 -53 26 -52 43 -37 9 6 21 10 28 7 8 -4 7 -6 -4 -6
-22 -1 -23 -30 -3 -57 10 -12 17 -15 22 -8 5 6 16 13 25 17 10 3 15 12 12 20
-3 9 3 17 17 20 14 4 20 11 16 21 -4 10 -1 16 8 16 27 0 23 -16 -16 -58 -44
-48 -47 -65 -20 -105 23 -35 90 -92 98 -83 3 3 -6 15 -20 27 -15 11 -27 28
-28 37 0 11 -2 13 -6 4 -4 -10 -8 -10 -18 -2 -20 17 17 50 55 50 36 0 38 -8 5
-35 l-24 -20 30 -33 c16 -18 45 -40 63 -47 l33 -14 12 39 c11 38 13 40 54 40
23 0 51 -7 61 -15 20 -15 20 -15 0 -30 -10 -8 -23 -15 -29 -15 -5 0 -4 -5 3
-12 16 -16 15 -23 -4 -42 -8 -9 -11 -16 -6 -16 13 0 44 47 34 53 -9 5 13 -1
35 -10 12 -4 14 -3 8 6 -5 10 -2 11 12 7 16 -5 19 -1 22 35 3 54 36 99 72 99
22 0 26 -4 22 -20 -3 -11 -2 -28 2 -37 7 -16 9 -15 15 7 l8 25 7 -22 c8 -26
25 -21 25 7 0 22 23 33 39 17 9 -9 16 -8 31 1 16 10 21 9 31 -9 6 -12 8 -35 5
-52 -3 -17 -1 -46 6 -64 12 -34 11 -36 -22 -64 -19 -17 -52 -42 -73 -56 l-37
-26 -21 27 c-22 29 -45 32 -71 12 -23 -17 -22 -22 2 -54 l21 -26 -37 -18 c-35
-17 -37 -17 -61 1 -22 18 -16 40 7 26 6 -3 10 -1 10 4 0 13 -20 14 -39 2 -8
-5 -11 -16 -6 -30 3 -12 11 -19 16 -16 5 3 6 -1 3 -9 -7 -18 -59 -37 -79 -30
-8 4 -15 14 -16 23 0 13 -2 13 -6 1 -3 -8 -12 -19 -20 -23 -7 -5 -10 -13 -7
-19 4 -7 2 -8 -4 -4 -7 4 -12 2 -12 -5 0 -7 -3 -9 -6 -6 -4 4 -1 13 5 21 8 10
9 16 1 21 -5 3 -10 1 -10 -5 0 -6 -4 -9 -9 -6 -5 3 -12 -1 -15 -10 -3 -8 -2
-12 4 -9 6 3 10 1 10 -4 0 -6 -10 -12 -22 -12 -40 -3 -62 -6 -88 -13 l-25 -8
22 16 c12 9 51 30 88 46 61 27 65 31 53 50 -7 11 -16 20 -20 20 -3 0 -21 12
-38 26 -25 22 -34 24 -43 14 -9 -10 -9 -11 1 -6 19 11 14 1 -10 -20 -19 -15
-20 -16 -9 -1 7 9 9 17 4 17 -13 0 -45 -35 -38 -42 3 -3 -3 -11 -12 -19 -16
-13 -17 -12 -4 4 21 26 4 20 -40 -15 -38 -31 -38 -31 -18 -46 15 -10 24 -11
32 -3 6 6 7 11 3 11 -5 0 -3 7 4 15 16 19 30 19 30 0 0 -8 -6 -15 -12 -15 -9
0 -8 -4 2 -11 13 -9 13 -10 -2 -6 -22 8 -30 -3 -15 -21 10 -13 8 -14 -15 -9
-17 5 -28 3 -31 -6 -3 -9 -13 -8 -42 6 -32 15 -36 16 -26 3 8 -9 9 -16 4 -16
-15 0 -65 41 -59 48 3 2 12 -1 21 -8 10 -8 15 -9 15 -2 0 6 -9 16 -20 22 -15
8 -20 8 -20 -1 0 -6 -7 -8 -17 -5 -13 5 -11 0 6 -18 29 -31 10 -35 -22 -5 -27
25 -57 42 -57 32 0 -4 12 -18 28 -30 20 -17 22 -21 7 -16 -11 4 -25 14 -32 22
-6 9 -15 12 -19 8 -5 -4 -2 -12 6 -18 11 -7 6 -8 -15 -3 -16 4 -37 13 -46 21
-11 9 -18 10 -21 3 -5 -15 -65 7 -91 33 -14 14 -21 16 -27 8 -12 -20 -100 28
-100 53 0 16 -2 18 -9 7 -12 -18 -28 -11 -116 49 -85 59 -135 111 -135 140 0
16 -5 20 -18 16 -13 -5 -27 5 -50 33 -18 22 -32 42 -32 45 0 3 -11 17 -24 31
-14 15 -22 33 -19 41 3 9 -1 14 -13 14 -16 0 -16 1 2 14 10 8 16 18 11 22 -4
4 -7 2 -7 -4 0 -22 -27 -12 -38 13 -16 35 -16 35 13 35 14 0 25 5 25 11 0 5
-4 7 -10 4 -5 -3 -10 -2 -10 4 0 5 6 11 13 14 6 2 9 7 6 11 -3 4 -19 2 -35 -4
-24 -9 -31 -8 -41 6 -17 24 -16 44 2 44 8 0 15 5 15 11 0 5 -10 9 -22 7 -15
-2 -24 3 -26 15 -3 16 -1 17 16 8 19 -10 21 -8 20 29 0 30 -4 40 -17 40 -13 0
-14 -2 -2 -9 12 -8 12 -12 -3 -26 -21 -22 -26 -17 -33 33 -4 33 -2 41 13 45
16 4 16 5 -3 6 -18 1 -21 6 -17 26 3 16 -1 27 -9 31 -8 3 -14 19 -15 36 l-1
30 23 -21 c12 -11 25 -21 28 -21 13 0 4 59 -9 64 -8 3 -12 10 -8 15 3 5 -3 12
-14 16 -11 3 -21 14 -23 23 -6 27 3 62 14 56 6 -4 5 3 -1 14 -13 25 -15 82 -2
82 5 0 11 9 14 21 5 18 11 20 37 14 17 -4 29 -3 28 2 -2 5 7 19 19 32 19 20
20 27 10 40 -8 10 -9 13 0 8 10 -6 29 27 25 42 -3 11 -55 11 -68 0 -11 -9 -14
-7 -14 10 0 13 -4 19 -10 16 -11 -7 13 59 56 156 22 49 28 55 50 51 13 -2 24
0 24 6 0 6 9 8 20 5 11 -3 20 -12 20 -19 0 -8 6 -14 13 -15 6 0 20 -2 30 -4
12 -2 21 5 28 21 14 38 9 53 -6 19 -8 -17 -14 -23 -15 -14 0 9 8 27 19 40 21
26 16 35 -34 62 -17 9 -23 16 -15 16 8 0 24 -6 34 -14 27 -21 46 -19 46 5 0
11 6 20 13 20 6 0 3 8 -8 16 -20 16 -20 16 1 10 18 -6 23 -1 32 34 8 33 7 42
-4 47 -8 3 -14 10 -14 15 0 6 7 7 15 4 9 -3 17 0 19 7 14 45 17 49 29 39 18
-15 77 -25 77 -14 0 6 2 17 5 24 4 9 -5 18 -22 25 l-28 11 33 -5 c24 -4 32 -2
32 10 0 8 9 25 20 38 l20 24 -15 -50 c-8 -27 -13 -49 -12 -50 63 -28 72 -25
61 20 -6 25 2 30 54 28 26 -1 10 15 -35 36 l-48 21 37 -4 c31 -4 40 -1 49 17
12 23 28 37 42 37 7 0 4 -23 -9 -72 -4 -12 4 -18 28 -23 21 -5 33 -4 36 4 2 6
10 11 18 11 8 0 14 5 14 11 0 5 4 8 9 5 5 -3 7 -15 4 -26 -6 -22 12 -28 20 -7
3 6 6 -1 6 -18 1 -22 4 -26 10 -15 6 8 7 18 5 22 -3 4 1 8 10 8 8 0 16 -5 18
-12 7 -19 38 -1 38 22 0 11 -4 20 -9 20 -5 0 -11 9 -14 20 -3 13 0 20 9 20 8
0 14 7 14 15 0 9 6 12 15 9 10 -4 15 0 15 11 0 9 -4 13 -10 10 -5 -3 -10 3
-10 14 0 11 -8 22 -17 25 -10 3 3 3 30 1 26 -2 47 0 47 6 0 5 7 9 15 9 11 0
12 -5 5 -25z m-143 -35 c-1 -22 -7 -40 -13 -40 -9 0 -9 11 -2 40 13 51 18 51
15 0z m-27 16 c0 -22 -13 -26 -46 -17 l-29 9 25 10 c35 15 50 14 50 -2z m70
-11 c0 -8 -7 -15 -15 -15 -16 0 -20 12 -8 23 11 12 23 8 23 -8z m-130 -25 c0
-5 -2 -10 -4 -10 -3 0 -8 5 -11 10 -3 6 -1 10 4 10 6 0 11 -4 11 -10z m0 -51
c0 -13 -17 -20 -34 -13 -27 10 -19 32 9 26 14 -2 25 -8 25 -13z m70 6 c0 -8
-4 -15 -10 -15 -5 0 -7 7 -4 15 4 8 8 15 10 15 2 0 4 -7 4 -15z m30 -25 c0 -5
-4 -10 -10 -10 -5 0 -10 5 -10 10 0 6 5 10 10 10 6 0 10 -4 10 -10z m-380 -76
c0 -2 -9 -4 -20 -4 -11 0 -20 4 -20 9 0 5 9 7 20 4 11 -3 20 -7 20 -9z m110 6
c0 -5 -5 -10 -11 -10 -5 0 -7 5 -4 10 3 6 8 10 11 10 2 0 4 -4 4 -10z m-245
-90 c3 -5 1 -10 -4 -10 -6 0 -11 5 -11 10 0 6 2 10 4 10 3 0 8 -4 11 -10z
m-35 -34 c-6 -17 -5 -26 3 -30 7 -2 8 -5 2 -5 -5 0 -17 3 -25 9 -12 7 -12 12
4 29 25 27 28 26 16 -3z m14 -57 c16 -15 0 -20 -28 -10 -32 13 -36 35 -3 26
12 -4 26 -11 31 -16z m-88 -60 c4 -7 10 -7 16 -1 11 11 48 4 48 -9 0 -5 -7 -5
-17 -2 -12 5 -14 3 -8 -7 5 -9 4 -11 -4 -6 -6 4 -19 2 -28 -6 -12 -9 -15 -9
-9 0 4 6 2 12 -3 12 -6 0 -11 -7 -11 -15 0 -9 -10 -15 -26 -15 l-25 0 18 30
c18 31 37 38 49 19z m-161 -359 c3 -5 1 -10 -4 -10 -6 0 -11 5 -11 10 0 6 2
10 4 10 3 0 8 -4 11 -10z m35 -20 c0 -5 -5 -10 -11 -10 -5 0 -7 5 -4 10 3 6 8
10 11 10 2 0 4 -4 4 -10z m-23 -36 c-3 -3 -12 -4 -19 -1 -8 3 -5 6 6 6 11 1
17 -2 13 -5z m-52 -244 c3 -5 1 -10 -4 -10 -6 0 -11 5 -11 10 0 6 2 10 4 10 3
0 8 -4 11 -10z m25 -46 c0 -8 -4 -12 -10 -9 -5 3 -10 13 -10 21 0 8 5 12 10 9
6 -3 10 -13 10 -21z m1757 -11 c10 -16 22 -31 27 -35 6 -4 8 -10 5 -13 -9 -9
-59 16 -53 26 3 5 0 9 -5 9 -6 0 -11 -4 -11 -10 0 -16 -20 -12 -27 5 -5 15 21
44 39 45 4 0 15 -12 25 -27z m-1672 -333 c-3 -5 -12 -10 -18 -10 -7 0 -6 4 3
10 19 12 23 12 15 0z m1723 -177 c3 -22 -25 -40 -40 -25 -12 12 12 54 27 49 5
-2 11 -13 13 -24z m-243 -243 c14 -16 15 -22 5 -35 -11 -13 -15 -12 -32 10
-31 39 -7 62 27 25z m-295 -73 c0 -2 -8 -3 -18 -3 -10 0 -19 6 -19 13 0 8 6 9
19 2 10 -5 18 -11 18 -12z m-50 9 c0 -2 -7 -7 -16 -10 -8 -3 -12 -2 -9 4 6 10
25 14 25 6z m-65 -36 c-3 -5 -11 -10 -16 -10 -6 0 -7 5 -4 10 3 6 11 10 16 10
6 0 7 -4 4 -10z m30 -10 c-8 -13 1 -13 25 0 16 8 18 8 14 -5 -3 -8 -10 -12
-15 -9 -5 3 -9 0 -9 -5 0 -8 -7 -7 -19 1 -19 12 -19 28 0 28 6 0 7 -4 4 -10z
m-412 -529 c15 -1 27 -6 27 -12 0 -6 -9 -8 -20 -4 -11 4 -20 2 -20 -4 0 -6 4
-11 9 -11 17 0 40 -30 35 -45 -7 -17 -50 -20 -59 -5 -4 7 2 9 19 4 36 -9 33
11 -4 33 -16 9 -30 21 -30 25 0 4 -4 8 -10 8 -15 0 -12 -67 3 -73 6 -3 1 -6
-13 -6 -24 -1 -25 2 -22 39 4 37 -11 57 -20 29 -3 -9 -10 -8 -25 2 -38 23 -72
-23 -38 -51 12 -10 18 -10 30 0 12 10 15 10 15 -4 0 -11 -9 -16 -28 -16 -33 0
-52 16 -52 45 0 12 5 26 12 33 16 16 65 15 71 0 4 -9 6 -8 6 2 1 15 5 15 114
11z m-540 -13 c7 -21 -4 -38 -25 -38 -15 0 -19 -5 -15 -20 4 -14 0 -20 -11
-20 -13 0 -17 10 -17 45 0 44 1 45 32 45 17 0 33 -6 36 -12z m73 1 c3 -6 1
-16 -4 -21 -8 -8 -8 -17 -1 -30 13 -24 32 -23 24 2 -3 10 -1 28 5 40 15 27 75
28 90 1 24 -46 -2 -70 -74 -70 -45 1 -56 5 -65 23 l-12 21 5 -22 c3 -19 0 -23
-22 -23 -19 0 -23 3 -13 9 9 6 12 21 9 45 -4 34 -2 36 23 36 15 0 31 -5 35
-11z m156 -31 c-5 -67 -11 -88 -27 -88 -8 0 -15 5 -15 11 0 5 5 7 11 3 8 -4
10 12 7 55 -2 50 0 61 12 61 12 0 15 -10 12 -42z m98 33 c0 -4 -11 -6 -25 -3
-19 3 -25 0 -25 -13 0 -12 6 -16 20 -12 12 3 20 0 20 -8 0 -8 -8 -11 -20 -8
-14 4 -20 0 -20 -12 0 -14 6 -16 30 -11 17 3 30 1 30 -4 0 -6 -19 -10 -42 -10
l-43 0 0 45 0 45 38 0 c20 0 37 -4 37 -9z m808 -14 c3 -12 -4 -20 -18 -24 -15
-4 -20 -11 -17 -24 4 -15 0 -19 -21 -18 -15 0 -21 3 -14 6 6 2 12 17 12 32 0
15 -6 33 -12 40 -11 10 -5 12 27 9 29 -2 41 -8 43 -21z m82 14 c0 -4 -11 -6
-25 -3 -19 3 -25 0 -25 -13 0 -13 6 -16 25 -11 19 5 25 2 25 -9 0 -11 -6 -14
-25 -9 -19 5 -25 2 -25 -9 0 -12 10 -16 40 -14 36 1 40 4 40 27 0 14 -5 31
-12 38 -9 9 -4 12 24 12 42 0 56 -14 37 -36 -10 -12 -9 -18 4 -32 24 -24 39
-4 28 36 -9 30 -8 32 17 31 15 0 21 -3 15 -6 -7 -2 -13 -20 -13 -38 0 -18 6
-36 13 -38 6 -3 -7 -6 -30 -6 -30 -1 -45 4 -53 17 -11 16 -11 16 -6 0 5 -16
-2 -18 -62 -18 l-67 0 0 45 0 45 38 0 c20 0 37 -4 37 -9z m250 -10 c5 -11 10
-24 10 -30 0 -19 -32 -41 -61 -41 -37 0 -57 36 -40 69 16 28 76 30 91 2z m98
7 c7 -7 12 -21 12 -33 0 -31 -19 -45 -59 -45 -36 0 -36 0 -36 45 0 45 0 45 36
45 19 0 40 -5 47 -12z m-1578 -207 c5 -11 10 -24 10 -30 0 -19 -32 -41 -61
-41 -37 0 -57 36 -40 69 16 28 76 30 91 2z m35 9 c-3 -5 -1 -19 6 -31 10 -20
12 -21 21 -5 5 9 7 24 4 32 -4 11 6 14 54 14 33 0 60 -4 60 -9 0 -4 -11 -6
-25 -3 -19 3 -25 0 -25 -13 0 -12 6 -16 20 -12 12 3 20 0 20 -8 0 -8 -8 -11
-20 -8 -14 4 -20 0 -20 -11 0 -12 8 -15 36 -13 35 2 35 3 32 39 l-3 37 57 0
c32 0 56 -4 53 -9 -3 -4 -1 -19 3 -31 l9 -23 12 22 c7 12 9 27 6 32 -4 6 24
10 74 10 45 0 81 -4 81 -9 0 -4 -12 -6 -26 -3 -20 4 -25 1 -22 -9 3 -8 15 -14
27 -13 12 0 21 -6 21 -13 0 -10 -7 -12 -20 -8 -15 5 -20 2 -20 -10 0 -13 6
-16 25 -13 14 3 25 1 25 -3 0 -5 -33 -9 -72 -8 -40 0 -67 3 -60 6 6 2 12 20
12 39 0 47 -21 43 -43 -9 -17 -40 -19 -41 -33 -22 -8 11 -17 30 -21 43 -7 30
-19 28 -27 -4 -5 -19 -2 -30 11 -40 16 -12 16 -13 1 -14 -9 0 -24 10 -34 23
-16 22 -16 22 -11 1 4 -21 1 -22 -67 -22 -39 0 -65 2 -58 5 15 6 16 73 1 73
-6 0 -18 -18 -27 -40 -9 -22 -19 -40 -23 -40 -3 0 -15 20 -27 45 -22 45 -22
45 -1 45 11 0 17 -4 14 -10z m590 -7 c-4 -10 -12 -30 -17 -45 -15 -43 -38 -31
-52 25 -3 15 -11 27 -17 27 -12 0 -3 -37 14 -58 12 -15 1 -30 -12 -16 -5 5
-16 26 -25 47 l-15 37 66 0 c58 0 64 -2 58 -17z m445 -2 c5 -11 10 -24 10 -30
0 -19 -32 -41 -61 -41 -37 0 -57 36 -40 69 16 28 76 30 91 2z m35 9 c-3 -5 -1
-19 6 -31 10 -20 12 -21 21 -5 5 9 7 24 4 32 -4 11 6 14 54 14 33 0 60 -4 60
-9 0 -4 -11 -6 -25 -3 -19 3 -25 0 -25 -13 0 -12 6 -16 20 -12 12 3 20 0 20
-8 0 -8 -8 -11 -20 -8 -14 4 -20 0 -20 -11 0 -12 8 -15 36 -13 35 2 35 3 32
39 l-3 37 57 0 c32 0 56 -4 53 -9 -3 -4 -1 -19 3 -31 l9 -23 12 22 c7 12 9 27
6 32 -4 6 24 10 74 10 45 0 81 -4 81 -9 0 -4 -12 -6 -26 -3 -20 4 -25 1 -22
-9 3 -8 15 -14 27 -13 12 0 21 -6 21 -13 0 -10 -7 -12 -20 -8 -15 5 -20 2 -20
-10 0 -13 6 -16 25 -13 14 3 25 1 25 -3 0 -5 -33 -9 -72 -8 -40 0 -67 3 -60 6
6 2 12 20 12 39 0 47 -21 43 -43 -9 -17 -40 -19 -41 -33 -22 -8 11 -17 30 -21
43 -7 30 -19 28 -27 -4 -5 -19 -2 -30 11 -40 16 -12 16 -13 1 -14 -9 0 -24 10
-34 23 -16 22 -16 22 -11 1 4 -21 1 -22 -67 -22 -39 0 -65 2 -58 5 15 6 16 73
1 73 -6 0 -18 -18 -27 -40 -9 -22 -19 -40 -23 -40 -3 0 -15 20 -27 45 -22 45
-22 45 -1 45 11 0 17 -4 14 -10z m590 -7 c-4 -10 -12 -30 -17 -45 -15 -43 -38
-31 -52 25 -3 15 -11 27 -17 27 -12 0 -3 -37 14 -58 12 -15 1 -30 -12 -16 -5
5 -16 26 -25 47 l-15 37 66 0 c58 0 64 -2 58 -17z"/>
<path d="M1798 3375 c-3 -14 -1 -25 3 -25 5 0 6 -7 3 -15 -4 -10 0 -15 14 -15
11 0 27 -2 35 -5 10 -4 14 2 14 25 0 22 -5 30 -19 30 -20 0 -25 -26 -5 -33 7
-4 6 -6 -4 -6 -20 -1 -30 20 -22 48 3 12 1 21 -5 21 -5 0 -12 -11 -14 -25z"/>
<path d="M1850 3390 c0 -5 5 -10 10 -10 6 0 10 5 10 10 0 6 -4 10 -10 10 -5 0
-10 -4 -10 -10z"/>
<path d="M1595 3370 c3 -5 15 -10 26 -10 10 0 19 5 19 10 0 6 -12 10 -26 10
-14 0 -23 -4 -19 -10z"/>
<path d="M1620 3334 c0 -8 5 -12 10 -9 6 3 10 10 10 16 0 5 -4 9 -10 9 -5 0
-10 -7 -10 -16z"/>
<path d="M1920 3320 c-12 -8 -11 -10 8 -10 12 0 22 5 22 10 0 13 -11 13 -30 0z"/>
<path d="M1580 3312 c0 -10 41 -24 49 -17 6 7 0 11 -26 19 -13 4 -23 3 -23 -2z"/>
<path d="M2110 3310 c0 -5 5 -10 10 -10 6 0 10 5 10 10 0 6 -4 10 -10 10 -5 0
-10 -4 -10 -10z"/>
<path d="M1790 3299 c0 -7 -7 -17 -15 -23 -8 -6 -16 -23 -19 -37 -4 -23 -1
-26 25 -27 19 0 33 5 37 16 8 19 32 28 32 12 0 -5 4 -10 8 -10 4 0 8 9 8 19 0
15 -7 18 -31 17 -28 -3 -31 0 -27 21 2 13 -1 23 -7 23 -6 0 -11 -5 -11 -11z
m8 -57 c2 -7 -3 -12 -12 -12 -9 0 -16 7 -16 16 0 17 22 14 28 -4z"/>
<path d="M1960 3295 c0 -17 -17 -20 -22 -4 -2 6 -14 8 -31 4 -39 -10 -32 -39
11 -43 24 -2 32 -8 32 -22 0 -10 5 -22 10 -25 6 -3 10 -17 10 -31 0 -21 -5
-24 -35 -24 -24 0 -35 -5 -35 -15 0 -8 8 -15 17 -15 15 0 14 -2 -3 -15 -19
-14 -19 -14 1 -15 19 -1 19 -1 3 -14 -27 -20 -23 -46 6 -46 30 0 42 16 26 35
-9 10 -7 14 7 18 17 4 17 5 0 6 -33 2 -7 21 29 21 27 0 34 4 34 20 0 12 7 20
18 20 26 1 52 25 52 49 0 17 -6 21 -35 21 -35 0 -47 16 -20 26 22 9 18 22 -7
26 -16 3 -12 5 15 9 35 5 37 4 37 -23 0 -15 5 -28 10 -28 6 0 10 18 10 40 l0
40 -70 0 c-56 0 -70 -3 -70 -15z m10 -165 c0 -5 -7 -10 -15 -10 -8 0 -15 5
-15 10 0 6 7 10 15 10 8 0 15 -4 15 -10z"/>
<path d="M2139 3288 c0 -13 -3 -17 -6 -10 -12 30 -24 8 -21 -40 3 -54 25 -78
35 -39 3 12 11 21 19 21 18 0 29 21 14 30 -8 5 -5 9 9 13 26 7 27 23 2 23 -11
0 -18 -3 -16 -6 1 -3 -4 -11 -13 -19 -14 -13 -15 -11 -9 17 4 19 2 32 -3 32
-6 0 -10 -10 -11 -22z"/>
<path d="M2178 3303 c7 -3 16 -2 19 1 4 3 -2 6 -13 5 -11 0 -14 -3 -6 -6z"/>
<path d="M1850 3290 c0 -5 5 -10 11 -10 5 0 7 5 4 10 -3 6 -8 10 -11 10 -2 0
-4 -4 -4 -10z"/>
<path d="M1320 3281 c0 -6 5 -13 10 -16 6 -3 10 1 10 9 0 9 -4 16 -10 16 -5 0
-10 -4 -10 -9z"/>
<path d="M1332 3198 c-10 -48 -7 -58 14 -58 20 0 29 27 14 45 -10 12 -10 15 3
15 15 0 33 18 26 24 -2 2 -14 7 -26 10 -19 6 -23 2 -31 -36z"/>
<path d="M1890 3210 c0 -25 4 -30 25 -30 14 0 25 5 25 10 0 6 -9 10 -20 10
-11 0 -20 5 -20 10 0 6 5 10 10 10 6 0 10 5 10 10 0 6 -7 10 -15 10 -10 0 -15
-10 -15 -30z"/>
<path d="M2276 3217 c-17 -14 -26 -28 -22 -36 4 -6 12 -9 17 -5 6 3 13 -3 16
-14 5 -20 33 -20 33 0 0 5 -4 6 -10 3 -5 -3 -10 1 -10 9 0 10 9 16 21 16 12 0
19 5 16 13 -2 6 -9 11 -15 10 -6 -2 -9 4 -6 12 9 22 -7 18 -40 -8z"/>
<path d="M1406 3213 c-10 -26 -6 -43 10 -43 12 0 15 -6 10 -25 -5 -20 -3 -25
13 -25 13 0 20 9 25 31 10 50 8 56 -23 67 -24 8 -31 7 -35 -5z"/>
<path d="M1710 3204 c0 -31 23 -28 28 4 2 15 -2 22 -12 22 -11 0 -16 -9 -16
-26z"/>
<path d="M1283 3200 c-1 -11 2 -20 7 -20 5 0 7 -7 4 -15 -4 -8 -1 -15 6 -15 8
0 9 10 5 31 -5 21 -4 29 3 25 6 -3 13 -2 17 4 3 6 -4 10 -17 10 -17 0 -24 -6
-25 -20z"/>
<path d="M1574 3205 c-15 -11 -17 -16 -6 -26 9 -10 12 -10 12 -1 0 7 7 12 15
12 8 0 15 4 15 9 0 18 -17 20 -36 6z"/>
<path d="M2191 3191 c-18 -16 -29 -31 -24 -34 6 -4 25 9 43 28 41 42 28 46
-19 6z"/>
<path d="M1520 3190 c0 -13 -7 -20 -20 -20 -24 0 -25 -6 -3 -28 16 -16 15 -17
-5 -20 -25 -4 -30 -22 -6 -22 24 0 74 33 74 49 0 11 -4 10 -20 -4 -23 -21 -28
-2 -5 21 8 8 12 21 9 29 -9 22 -24 18 -24 -5z"/>
<path d="M1752 3185 c0 -5 -2 -17 -5 -25 -3 -8 -8 -24 -10 -35 -3 -15 -5 -13
-6 8 -1 36 -21 35 -21 -1 0 -21 -5 -28 -20 -29 -19 -2 -19 0 -5 20 22 32 19
37 -25 37 -22 0 -40 -4 -40 -10 0 -5 12 -8 28 -6 15 2 19 1 9 -1 -11 -3 -16
-10 -13 -19 4 -10 -3 -14 -22 -15 -63 -2 45 -17 118 -16 41 0 60 2 43 4 -34 4
-38 10 -27 37 8 20 34 21 34 2 0 -8 5 -18 12 -22 6 -4 8 -3 5 3 -3 5 9 16 28
23 45 17 45 34 2 27 -19 -3 -40 -1 -47 3 -9 6 3 10 35 12 l50 3 -62 5 c-39 3
-62 1 -61 -5z"/>
<path d="M2220 3165 c-10 -12 -10 -18 0 -31 11 -13 15 -13 27 -1 13 13 8 47
-7 47 -4 0 -13 -7 -20 -15z"/>
<path d="M1202 3159 c2 -7 19 -16 37 -20 18 -4 38 -12 44 -18 15 -15 27 -14
27 4 0 8 -17 19 -41 25 -22 6 -47 14 -56 17 -11 4 -14 2 -11 -8z"/>
<path d="M2400 3159 c0 -5 5 -7 10 -4 6 3 10 8 10 11 0 2 -4 4 -10 4 -5 0 -10
-5 -10 -11z"/>
<path d="M1061 3078 c-26 -102 -27 -119 -3 -112 16 5 16 5 -1 -6 -9 -6 -15
-15 -12 -20 3 -5 36 5 73 22 37 17 90 34 117 37 35 4 50 11 50 21 0 8 4 20 8
27 4 6 3 14 -2 17 -5 4 -12 0 -14 -6 -3 -7 -6 -2 -7 12 -1 14 -4 19 -7 13 -8
-21 -33 -15 -33 7 0 11 -4 20 -10 20 -5 0 -10 -4 -10 -10 0 -5 -7 -7 -15 -4
-8 4 -15 14 -15 24 0 11 -10 19 -25 22 -15 3 -25 1 -24 -6 3 -27 -2 -36 -21
-36 -16 0 -20 -7 -21 -32 -1 -18 -4 -44 -8 -58 -7 -24 -7 -24 -13 -4 -3 11 3
47 13 80 21 67 22 74 11 74 -5 0 -19 -37 -31 -82z m98 1 c-7 -14 -8 -24 -1
-28 7 -4 5 -13 -4 -25 -8 -11 -14 -14 -14 -8 0 10 -5 10 -21 2 -11 -7 -24 -9
-27 -5 -3 3 4 8 16 11 15 4 23 17 28 40 4 20 12 34 20 34 12 0 12 -4 3 -21z
m-39 -19 c0 -5 -4 -10 -10 -10 -5 0 -10 5 -10 10 0 6 5 10 10 10 6 0 10 -4 10
-10z m100 -24 c0 -2 -9 -6 -20 -9 -11 -3 -18 -1 -14 4 5 9 34 13 34 5z"/>
<path d="M1386 3151 c-4 -7 -5 -15 -2 -18 9 -9 19 4 14 18 -4 11 -6 11 -12 0z"/>
<path d="M1590 3146 c0 -8 5 -18 10 -21 6 -3 10 1 10 9 0 8 -4 18 -10 21 -5 3
-10 -1 -10 -9z"/>
<path d="M2076 3129 c-6 -31 -1 -49 13 -49 9 0 8 66 0 75 -4 3 -9 -8 -13 -26z"/>
<path d="M2119 3150 c-8 -32 -6 -61 4 -57 16 5 21 37 8 50 -6 6 -12 9 -12 7z"/>
<path d="M1860 3119 c0 -16 -4 -19 -20 -14 -11 4 -20 2 -20 -4 0 -6 11 -11 25
-11 20 0 25 5 25 25 0 14 -2 25 -5 25 -3 0 -5 -9 -5 -21z"/>
<path d="M2182 3128 c-18 -18 -14 -27 8 -21 21 6 26 18 12 27 -5 3 -14 0 -20
-6z"/>
<path d="M1316 3113 c-2 -10 -4 -36 -4 -59 l1 -41 91 -13 c122 -18 136 -18
136 -3 0 7 5 13 10 13 6 0 10 7 10 16 0 11 -6 14 -20 9 -12 -4 -20 -2 -20 5 0
7 -6 10 -14 7 -9 -4 -16 3 -20 17 -4 18 -20 27 -80 44 -89 26 -84 26 -90 5z
m57 -30 c-4 -11 -3 -14 5 -9 7 4 12 2 12 -3 0 -6 8 -11 18 -11 13 0 14 2 3 9
-9 6 -10 11 -3 15 6 4 15 -2 21 -12 8 -15 5 -18 -16 -20 -25 -2 -63 22 -63 40
0 4 7 8 15 8 9 0 12 -6 8 -17z m107 -17 c0 -3 -4 -8 -10 -11 -5 -3 -10 -1 -10
4 0 6 5 11 10 11 6 0 10 -2 10 -4z m45 -46 c3 -5 -1 -10 -9 -10 -9 0 -16 5
-16 10 0 6 4 10 9 10 6 0 13 -4 16 -10z"/>
<path d="M2285 3119 c-4 -6 -5 -13 -2 -16 7 -7 27 6 27 18 0 12 -17 12 -25 -2z"/>
<path d="M1540 3100 c0 -5 11 -10 25 -10 14 0 25 5 25 10 0 6 -11 10 -25 10
-14 0 -25 -4 -25 -10z"/>
<path d="M2168 3083 c-16 -2 -28 -9 -28 -15 0 -5 7 -8 15 -4 8 3 15 2 15 -3 0
-12 -39 -21 -45 -10 -4 5 -13 5 -23 0 -9 -5 -25 -12 -35 -15 -27 -9 -10 -27
19 -20 18 5 24 2 24 -10 0 -12 -10 -16 -35 -16 -19 0 -35 5 -35 10 0 6 -4 10
-8 10 -4 0 -6 -16 -4 -35 3 -27 0 -35 -11 -35 -9 0 -22 -6 -29 -14 -19 -19
-58 -30 -58 -17 0 6 7 11 16 11 8 0 12 5 9 10 -4 6 -10 8 -15 5 -8 -5 -20 17
-20 40 0 13 29 29 38 20 3 -2 -1 -11 -7 -19 -8 -10 -9 -16 -1 -21 5 -3 10 -3
10 2 0 4 5 1 10 -7 8 -12 10 -11 10 8 0 38 -19 59 -51 54 -28 -4 -28 -5 -26
-71 2 -62 4 -66 27 -68 14 -1 45 4 70 11 25 7 51 11 58 9 7 -3 12 5 12 22 0
24 3 26 25 21 14 -4 25 -2 25 3 0 5 9 11 20 14 11 3 18 1 14 -4 -3 -5 4 -9 15
-9 25 0 40 26 39 70 -1 30 -2 31 -14 15 -7 -10 -11 -22 -8 -26 3 -5 -7 -14
-23 -20 -40 -16 -103 -28 -103 -19 0 4 18 10 41 14 38 6 41 9 35 31 -6 22 -3
25 19 25 14 0 25 4 25 9 0 5 11 8 25 5 14 -2 25 0 25 5 0 9 -29 43 -33 40 -1
-1 -14 -4 -29 -6z"/>
<path d="M2370 3083 c0 -5 5 -15 10 -23 7 -12 12 -12 22 -2 10 10 10 15 -2 22
-18 12 -30 13 -30 3z"/>
<path d="M1530 3070 c0 -5 5 -10 11 -10 5 0 7 5 4 10 -3 6 -8 10 -11 10 -2 0
-4 -4 -4 -10z"/>
<path d="M1570 3051 c0 -21 6 -32 20 -36 11 -3 20 -11 20 -16 0 -5 7 -9 15 -9
8 0 15 -4 15 -9 0 -12 -53 -9 -62 4 -4 5 -10 6 -14 3 -10 -11 64 -73 96 -80 8
-2 21 -9 28 -16 21 -19 29 -7 31 53 1 55 1 55 -28 55 -16 0 -31 -5 -33 -11 -2
-7 -9 -5 -17 5 -12 14 -10 16 21 16 40 0 58 15 58 47 0 22 -3 23 -75 23 l-75
0 0 -29z m118 13 c39 -11 18 -29 -40 -34 -53 -5 -56 -4 -54 17 1 19 7 23 36
23 19 0 45 -3 58 -6z m12 -100 c0 -20 -11 -44 -21 -44 -4 0 -6 6 -3 14 3 7 -2
16 -11 20 -9 3 -14 10 -10 15 8 14 45 9 45 -5z"/>
<path d="M1753 3063 c9 -2 25 -2 35 0 9 3 1 5 -18 5 -19 0 -27 -2 -17 -5z"/>
<path d="M1970 3053 c0 -14 10 -16 34 -7 25 9 19 22 -9 20 -14 0 -25 -7 -25
-13z"/>
<path d="M2050 3060 c0 -5 5 -10 10 -10 6 0 10 5 10 10 0 6 -4 10 -10 10 -5 0
-10 -4 -10 -10z"/>
<path d="M2423 3046 c5 -12 1 -23 -10 -32 -12 -9 -14 -13 -5 -14 7 0 20 7 28
15 14 13 13 17 -2 33 -17 16 -18 16 -11 -2z"/>
<path d="M1760 3024 c0 -17 4 -23 13 -18 10 6 10 4 0 -7 -17 -18 -16 -32 1
-26 10 4 13 1 9 -9 -3 -7 -13 -14 -23 -14 -11 0 -19 -10 -22 -25 -5 -23 -2
-25 27 -25 18 0 38 -7 45 -15 7 -8 28 -15 46 -15 34 0 34 1 34 45 0 45 0 45
-35 45 -28 0 -35 4 -35 20 0 12 -7 20 -16 20 -14 0 -14 1 0 16 9 8 16 20 16
25 0 15 -17 10 -24 -6 -3 -8 -10 -15 -15 -15 -6 0 -8 7 -5 15 4 8 1 15 -5 15
-6 0 -11 -12 -11 -26z m108 -109 c-3 -34 -41 -31 -46 3 -3 18 1 22 22 22 21 0
25 -4 24 -25z"/>
<path d="M2312 3032 c-19 -13 -4 -72 18 -72 19 0 36 -43 24 -62 -5 -8 -1 -9
10 -5 10 4 29 10 42 13 27 7 28 8 14 35 -7 12 -7 19 -1 19 11 0 26 -38 23 -56
-2 -12 27 -28 35 -20 3 2 2 13 -1 23 -8 26 -56 90 -56 75 0 -7 -15 -12 -35
-12 -37 0 -43 8 -23 28 9 9 9 12 0 12 -7 0 -12 7 -12 15 0 16 -18 19 -38 7z
m28 -22 c0 -5 -7 -10 -16 -10 -8 0 -12 5 -9 10 3 6 10 10 16 10 5 0 9 -4 9
-10z m51 -67 c-10 -4 -10 -7 -1 -13 8 -5 7 -9 -4 -13 -11 -5 -16 -1 -16 13 0
13 6 20 18 19 12 0 13 -2 3 -6z"/>
<path d="M1980 3010 c0 -5 4 -10 9 -10 6 0 13 5 16 10 3 6 -1 10 -9 10 -9 0
-16 -4 -16 -10z"/>
<path d="M2459 2992 c5 -10 17 -24 25 -31 9 -8 13 -18 9 -24 -3 -6 -1 -7 5 -3
7 4 12 3 12 -3 0 -5 -6 -11 -12 -14 -7 -2 -10 -7 -7 -11 3 -3 14 0 24 8 18 13
17 15 -16 54 -35 43 -57 56 -40 24z"/>
<path d="M1225 2960 c-25 -11 1 -11 35 0 20 6 21 8 5 8 -11 0 -29 -3 -40 -8z"/>
<path d="M1345 2953 c-17 -3 -20 -10 -17 -37 4 -33 5 -34 45 -30 l42 4 -45
-12 c-40 -12 -45 -16 -48 -45 -3 -27 0 -33 17 -33 10 0 22 6 24 13 4 8 8 9 14
1 4 -6 22 -14 39 -17 27 -5 33 -3 37 14 4 16 11 19 26 14 15 -4 21 -2 21 9 0
20 54 25 103 9 31 -10 37 -10 37 2 0 7 -9 16 -20 20 -11 3 -33 20 -50 36 -16
17 -35 27 -40 24 -6 -4 -21 0 -33 7 -32 21 -65 28 -71 14 -3 -7 -5 -7 -5 2 -1
12 -33 14 -76 5z m55 -21 c0 -4 -11 -9 -25 -10 -14 -1 -25 3 -25 8 0 6 11 10
25 10 14 0 25 -4 25 -8z m77 -24 c-3 -8 -6 -5 -6 6 -1 11 2 17 5 13 3 -3 4
-12 1 -19z m39 -14 c-3 -9 -6 -18 -6 -20 0 -2 -9 -4 -20 -4 -11 0 -20 5 -20
11 0 5 4 8 9 5 5 -3 11 1 15 9 3 8 10 15 17 15 6 0 8 -7 5 -16z m30 -21 c-11
-11 -19 6 -11 24 8 17 8 17 12 0 3 -10 2 -21 -1 -24z m-199 -45 c-3 -8 -6 -5
-6 6 -1 11 2 17 5 13 3 -3 4 -12 1 -19z m80 -14 c-3 -3 -12 -4 -19 -1 -8 3 -5
6 6 6 11 1 17 -2 13 -5z"/>
<path d="M2246 2934 c-10 -14 -16 -28 -13 -30 2 -3 12 7 21 22 10 14 16 28 13
30 -2 3 -12 -7 -21 -22z"/>
<path d="M1118 2929 c-64 -23 -73 -36 -52 -78 14 -28 18 -30 37 -19 16 8 13 2
-10 -22 -18 -18 -39 -52 -48 -74 -14 -40 -15 -40 -9 -6 4 19 13 47 20 63 13
23 12 31 -1 57 -9 17 -20 30 -25 30 -14 0 -24 -44 -11 -48 6 -2 11 -8 11 -13
0 -4 -7 -6 -15 -3 -11 5 -15 -1 -16 -22 -1 -16 0 -33 1 -39 4 -20 14 -232 14
-282 -1 -45 2 -53 18 -53 14 0 18 7 16 40 -2 49 1 52 32 35 19 -11 21 -14 8
-15 -19 0 -26 -30 -7 -30 5 0 7 5 4 10 -8 12 47 -11 57 -24 3 -5 0 -19 -8 -31
-11 -16 -21 -20 -44 -17 -25 4 -30 1 -30 -17 0 -11 5 -21 11 -21 8 0 8 -5 -1
-15 -10 -12 -16 -13 -26 -4 -8 6 -14 8 -14 4 0 -4 11 -16 25 -27 20 -15 22
-22 12 -33 -6 -7 -15 -11 -19 -8 -5 2 -8 -1 -8 -6 0 -6 3 -11 8 -12 4 0 17 -2
30 -3 18 -2 21 1 17 18 -6 20 -6 20 9 2 9 -10 13 -23 10 -27 -7 -12 3 -11 25
1 10 5 21 16 25 25 5 13 2 13 -19 -1 -33 -22 -32 -5 1 21 35 28 41 73 12 77
-12 2 -23 9 -26 17 -7 20 47 5 75 -21 21 -20 21 -20 32 -1 7 15 5 27 -10 52
-24 39 -24 40 2 34 17 -5 20 -2 17 13 -2 11 -11 18 -21 16 -9 -2 -17 2 -17 8
0 5 -5 10 -11 10 -5 0 -7 -4 -4 -10 8 -13 5 -12 -34 1 -17 6 -31 15 -31 21 0
5 -4 6 -10 3 -5 -3 -10 -1 -10 5 0 6 -4 8 -10 5 -5 -3 -10 1 -10 10 0 9 -4 14
-8 11 -4 -2 -8 3 -9 12 -1 9 -4 38 -7 65 -3 26 -2 47 3 47 5 0 8 -15 8 -32 0
-36 12 -82 20 -75 2 3 0 15 -7 26 -6 12 -7 21 -2 21 14 0 33 -26 25 -34 -4 -4
-1 -4 8 -1 9 3 24 -5 37 -20 12 -14 17 -25 10 -25 -29 0 10 -19 45 -22 23 -1
37 -7 37 -16 0 -7 5 -10 10 -7 16 10 12 -22 -6 -39 -14 -14 -13 -18 3 -41 10
-13 27 -25 38 -25 15 0 16 -3 7 -12 -7 -7 -12 -16 -12 -22 0 -6 5 -5 12 2 16
16 33 15 19 -1 -8 -11 4 -29 54 -81 36 -36 83 -76 105 -87 l40 -21 47 28 c77
44 113 75 113 96 0 10 5 16 10 13 6 -3 10 -1 10 4 0 6 7 11 15 11 8 0 15 4 15
9 0 10 -131 133 -136 128 -8 -8 23 -72 44 -94 13 -13 20 -28 16 -35 -5 -7 -16
0 -33 21 -14 17 -32 31 -39 31 -9 0 -11 7 -7 20 8 24 -2 26 -26 4 -16 -14 -19
-14 -38 5 -21 21 -29 61 -12 61 5 0 13 10 17 23 4 12 12 26 18 30 7 5 3 7 -9
5 -11 -2 -20 3 -21 10 -1 6 -2 19 -3 27 0 8 -22 28 -47 43 -25 16 -55 44 -66
63 -15 24 -16 30 -4 20 13 -11 16 -11 16 0 0 11 2 11 10 -1 12 -19 22 -8 14
14 -4 9 -12 15 -20 12 -15 -6 -38 19 -30 32 9 15 -34 47 -66 48 -16 1 -35 7
-40 12 -8 8 -5 9 9 6 13 -4 22 0 26 10 7 18 -8 30 -28 22 -18 -6 -19 -1 -5 24
9 16 6 18 -33 13 -23 -3 -56 -8 -73 -13 -28 -7 -31 -5 -27 11 4 15 -2 22 -28
31 l-33 11 54 19 c50 17 74 29 54 27 -5 0 -34 -9 -66 -20z m-8 -59 c0 -5 -5
-10 -11 -10 -5 0 -7 5 -4 10 3 6 8 10 11 10 2 0 4 -4 4 -10z m120 -64 c0 -3
-11 -1 -24 4 -13 5 -27 6 -32 2 -4 -4 -4 -1 0 6 4 7 12 10 17 7 5 -4 9 -1 9 5
0 7 6 5 15 -4 8 -8 15 -17 15 -20z m-90 -11 c-7 -9 -15 -13 -19 -10 -3 3 1 10
9 15 21 14 24 12 10 -5z m220 -56 c0 -14 -17 -10 -23 5 -4 10 -1 13 9 9 7 -3
14 -9 14 -14z m-150 -31 c0 -19 -13 -33 -32 -36 -21 -3 -24 18 -6 36 16 16 38
15 38 0z m110 -41 c0 -7 18 -41 40 -75 23 -34 38 -67 35 -72 -3 -5 9 -23 27
-39 24 -22 28 -30 16 -31 -9 0 -46 36 -82 79 -51 60 -66 86 -64 107 1 16 3 32
5 37 7 12 23 8 23 -6z m-64 -14 c21 -27 17 -42 -8 -36 -13 3 -29 11 -36 16
-11 9 -11 13 4 24 23 17 24 16 40 -4z m64 -179 c0 -8 -7 -14 -15 -14 -17 0
-18 2 -9 24 7 18 24 12 24 -10z m58 -27 c4 -20 -25 -34 -40 -19 -15 15 -1 44
19 40 10 -2 19 -11 21 -21z m-188 -9 c0 -7 12 -25 28 -41 18 -20 20 -25 7 -17
-11 7 -30 25 -43 41 -19 23 -20 29 -8 29 9 0 16 -5 16 -12z m-30 -118 c0 -5
-5 -10 -11 -10 -5 0 -7 5 -4 10 3 6 8 10 11 10 2 0 4 -4 4 -10z m374 4 c21 -8
20 -40 -1 -48 -9 -4 -23 0 -31 8 -13 12 -13 18 -2 30 14 18 13 18 34 10z
m-408 -19 c-1 -8 -5 -17 -8 -21 -5 -4 -4 16 1 34 3 9 9 -1 7 -13z m350 -54 c5
-5 24 -13 43 -18 32 -8 33 -10 16 -26 -11 -12 -25 -15 -39 -11 -29 9 -60 40
-52 53 9 13 19 14 32 2z"/>
<path d="M1296 2943 c-12 -13 -6 -53 9 -53 9 0 15 9 15 24 0 26 -12 40 -24 29z"/>
<path d="M2320 2925 c0 -14 5 -25 10 -25 6 0 10 11 10 25 0 14 -4 25 -10 25
-5 0 -10 -11 -10 -25z"/>
<path d="M1167 2923 c-13 -12 -7 -33 8 -33 8 0 15 -4 15 -10 0 -5 5 -10 10
-10 6 0 10 14 10 30 0 22 -5 30 -18 30 -10 0 -22 -3 -25 -7z"/>
<path d="M2620 2920 c0 -5 5 -10 10 -10 6 0 10 5 10 10 0 6 -4 10 -10 10 -5 0
-10 -4 -10 -10z"/>
<path d="M2525 2903 c-11 -8 -27 -18 -35 -23 -13 -8 -12 -11 4 -27 17 -16 18
-16 13 -1 -4 11 3 24 20 38 30 23 28 36 -2 13z"/>
<path d="M2228 2893 c-16 -2 -28 -9 -28 -15 0 -6 12 -8 31 -4 17 3 35 6 40 6
5 0 9 5 9 10 0 10 -3 10 -52 3z"/>
<path d="M2115 2850 c-3 -5 -2 -10 4 -10 5 0 13 5 16 10 3 6 2 10 -4 10 -5 0
-13 -4 -16 -10z"/>
<path d="M2209 2831 c0 -24 -1 -24 -9 -6 -8 18 -9 18 -9 2 -1 -10 -8 -20 -16
-23 -25 -10 -17 -25 10 -20 23 4 30 -3 26 -26 0 -5 4 -8 9 -8 6 0 8 12 6 26
-3 17 -1 24 7 21 7 -2 12 -14 11 -26 0 -11 5 -21 12 -21 13 0 28 -28 25 -47
-1 -7 5 -13 14 -13 8 0 15 9 15 20 0 11 7 20 15 20 13 0 14 -4 5 -20 -7 -14
-7 -20 0 -20 5 0 10 5 10 11 0 8 4 8 14 0 18 -15 27 -1 19 29 -6 22 -7 23 -14
4 -5 -11 -8 10 -8 54 -1 46 -5 71 -11 67 -5 -3 -10 -24 -10 -45 0 -21 -5 -42
-11 -45 -15 -10 -24 2 -12 17 16 20 22 78 7 78 -11 0 -15 -8 -35 -70 -6 -18
-7 -12 -5 22 l3 47 -33 -1 c-29 -1 -34 -5 -35 -27z"/>
<path d="M2386 2851 c-4 -7 -5 -15 -2 -18 9 -9 19 4 14 18 -4 11 -6 11 -12 0z"/>
<path d="M2410 2850 c0 -5 5 -10 10 -10 6 0 10 5 10 10 0 6 -4 10 -10 10 -5 0
-10 -4 -10 -10z"/>
<path d="M2453 2848 c2 -7 10 -13 18 -13 8 -1 13 -7 11 -14 -1 -7 2 -10 8 -6
14 9 -6 45 -26 45 -9 0 -14 -6 -11 -12z"/>
<path d="M1510 2814 c-13 -33 -13 -31 9 -37 30 -8 45 46 16 57 -11 4 -19 -3
-25 -20z m17 -16 c-3 -8 -6 -5 -6 6 -1 11 2 17 5 13 3 -3 4 -12 1 -19z"/>
<path d="M2008 2833 c-10 -2 -18 -10 -18 -16 0 -8 -3 -8 -11 0 -12 12 -76 1
-69 -12 3 -6 20 -9 38 -8 29 2 32 0 32 -27 0 -22 -4 -28 -15 -24 -10 4 -15 0
-15 -15 0 -23 1 -24 24 -15 9 3 16 16 17 28 0 14 2 16 6 6 14 -37 43 -33 43 6
0 17 -5 24 -20 24 -27 0 -25 24 3 43 22 16 18 19 -15 10z"/>
<path d="M2050 2830 c0 -5 5 -10 10 -10 6 0 10 5 10 10 0 6 -4 10 -10 10 -5 0
-10 -4 -10 -10z"/>
<path d="M2362 2810 c0 -19 2 -27 5 -17 2 9 2 25 0 35 -3 9 -5 1 -5 -18z"/>
<path d="M2650 2831 c0 -10 30 -24 37 -17 3 3 2 9 -2 15 -8 13 -35 15 -35 2z"/>
<path d="M942 2813 c-6 -10 -13 -33 -17 -50 -5 -26 -3 -33 9 -33 20 0 32 20
16 30 -8 5 -8 9 -2 11 15 6 27 59 13 59 -5 0 -14 -8 -19 -17z"/>
<path d="M1568 2823 c6 -2 12 -11 12 -19 0 -9 -4 -13 -9 -10 -5 3 -11 0 -14
-8 -3 -8 1 -17 9 -20 9 -4 18 3 24 20 15 37 12 44 -12 43 -13 0 -17 -3 -10 -6z"/>
<path d="M2138 2824 c-5 -4 -8 -16 -8 -28 0 -14 3 -17 11 -9 6 6 9 19 7 28 -1
9 -6 13 -10 9z"/>
<path d="M2415 2817 c-15 -9 -22 -24 -24 -57 l-3 -45 43 42 c35 36 40 45 29
58 -15 18 -19 18 -45 2z"/>
<path d="M1601 2788 c-13 -37 -7 -45 37 -54 29 -6 32 -4 32 17 0 18 -3 20 -12
11 -7 -7 -19 -12 -27 -12 -11 0 -12 3 -3 12 8 8 9 15 1 25 -16 18 -8 17 53
-13 29 -14 43 -24 31 -21 -25 5 -41 -22 -21 -35 19 -12 29 -10 43 9 10 13 11
11 7 -17 -3 -21 -1 -31 5 -27 19 12 21 56 4 71 -17 14 -119 66 -132 66 -4 0
-12 -14 -18 -32z"/>
<path d="M1467 2803 c-10 -10 -8 -45 2 -39 11 7 21 46 12 46 -4 0 -11 -3 -14
-7z"/>
<path d="M1872 2798 c2 -6 10 -14 16 -16 7 -2 10 2 6 12 -7 18 -28 22 -22 4z"/>
<path d="M800 2771 c0 -5 11 -12 25 -15 16 -4 22 -11 18 -21 -3 -10 -12 -13
-24 -10 -14 5 -19 1 -19 -14 0 -12 7 -21 15 -21 9 0 12 -6 9 -15 -4 -9 0 -15
8 -15 9 0 18 19 24 51 10 49 10 51 -13 60 -31 11 -43 11 -43 0z"/>
<path d="M1772 2766 c-11 -19 38 -45 79 -42 36 3 69 16 41 16 -6 0 -9 6 -6 14
4 11 -8 15 -51 18 -31 1 -59 -1 -63 -6z m68 -26 c0 -5 -2 -10 -4 -10 -3 0 -8
5 -11 10 -3 6 -1 10 4 10 6 0 11 -4 11 -10z"/>
<path d="M2160 2751 c0 -30 11 -51 26 -51 8 0 14 7 14 15 0 9 -6 12 -17 9 -17
-5 -17 -5 0 6 9 6 17 19 16 28 0 10 -3 12 -6 5 -2 -7 -9 -13 -14 -13 -6 0 -7
5 -4 10 3 6 1 10 -4 10 -6 0 -11 -9 -11 -19z"/>
<path d="M1390 2750 c0 -5 5 -10 10 -10 6 0 10 5 10 10 0 6 -4 10 -10 10 -5 0
-10 -4 -10 -10z"/>
<path d="M1530 2751 c0 -8 41 -23 47 -17 2 1 -8 8 -22 14 -14 6 -25 8 -25 3z"/>
<path d="M2597 2753 c-4 -3 -2 -12 4 -19 7 -8 7 -14 -1 -19 -13 -8 -13 -25 0
-25 14 0 31 37 24 54 -6 17 -16 20 -27 9z"/>
<path d="M1453 2738 c0 -7 -3 -23 -7 -35 -5 -14 -3 -23 3 -23 6 0 11 6 11 13
0 6 3 22 6 35 4 12 2 22 -3 22 -5 0 -10 -6 -10 -12z"/>
<path d="M1483 2728 c-2 -18 0 -20 7 -8 12 18 13 30 2 30 -4 0 -9 -10 -9 -22z"/>
<path d="M2050 2736 c0 -12 11 -16 46 -16 59 0 55 24 -4 28 -33 2 -42 0 -42
-12z"/>
<path d="M2501 2731 c-8 -5 -11 -16 -8 -25 4 -9 2 -16 -3 -16 -6 0 -10 -4 -10
-10 0 -5 10 -10 21 -10 16 0 20 5 16 20 -3 11 -1 20 4 20 5 0 9 7 9 15 0 17
-9 19 -29 6z"/>
<path d="M870 2706 c0 -13 6 -27 13 -29 7 -3 4 -6 -6 -6 -10 -1 -16 -5 -13
-10 4 -5 2 -11 -3 -13 -5 -1 -12 -16 -15 -33 -3 -16 -8 -41 -12 -54 -12 -41
39 -58 53 -16 5 16 12 22 21 17 9 -6 7 -13 -8 -30 -11 -11 -20 -26 -20 -32 0
-5 -4 -10 -10 -10 -5 0 -10 5 -10 10 0 6 -13 1 -30 -12 -33 -24 -39 -48 -12
-49 9 0 26 -2 37 -5 11 -2 38 -5 60 -6 33 -3 40 0 41 17 1 11 3 45 5 75 l3 55
-49 5 c-42 4 -46 6 -25 12 14 4 35 8 48 8 12 0 22 6 22 14 0 8 6 17 13 19 6 3
3 6 -8 6 -13 1 -16 4 -8 9 18 11 4 62 -17 62 -10 0 -21 -6 -23 -12 -3 -7 -6
-3 -6 10 -1 32 -41 31 -41 -2z m47 -212 c-3 -3 -12 -4 -19 -1 -8 3 -5 6 6 6
11 1 17 -2 13 -5z"/>
<path d="M1545 2709 c-4 -6 -5 -13 -2 -16 7 -7 27 6 27 18 0 12 -17 12 -25 -2z"/>
<path d="M1770 2711 c0 -10 34 -21 68 -21 13 0 20 -4 17 -10 -3 -5 -2 -10 3
-10 6 0 12 6 15 14 4 10 -7 17 -38 25 -53 13 -65 14 -65 2z"/>
<path d="M1684 2695 c9 -10 15 -24 12 -31 -3 -8 -9 -21 -12 -29 -4 -10 0 -15
10 -15 16 0 39 59 27 71 -3 4 -17 10 -31 14 -23 7 -23 7 -6 -10z"/>
<path d="M2235 2700 c27 -12 35 -12 35 0 0 6 -12 10 -27 9 -25 0 -26 -1 -8 -9z"/>
<path d="M1495 2686 c35 -18 64 -21 49 -6 -5 5 -25 12 -44 15 l-35 5 30 -14z"/>
<path d="M1659 2683 c0 -5 -2 -18 -5 -30 -2 -13 1 -23 6 -23 6 0 10 6 10 14 0
8 3 21 6 30 3 9 1 16 -5 16 -6 0 -11 -3 -12 -7z"/>
<path d="M2100 2679 c0 -6 -7 -9 -15 -5 -11 4 -15 -2 -15 -24 0 -17 5 -30 10
-30 6 0 10 7 10 16 0 8 5 12 10 9 6 -3 10 -2 10 4 0 5 8 8 18 6 9 -2 20 -4 25
-4 4 -1 7 -8 7 -17 0 -8 4 -13 9 -9 5 3 13 -20 16 -50 4 -30 12 -55 17 -55 7
0 8 18 4 48 -4 26 -7 55 -7 65 0 12 -5 17 -15 13 -8 -3 -14 -1 -14 4 0 6 7 10
15 10 8 0 15 7 15 15 0 11 -12 15 -50 15 -30 0 -50 -4 -50 -11z"/>
<path d="M1470 2665 c0 -8 9 -15 20 -15 11 0 23 -7 26 -15 9 -21 24 -19 24 4
0 12 -11 23 -31 30 -40 14 -39 14 -39 -4z"/>
<path d="M1880 2669 c0 -5 5 -7 10 -4 6 3 10 8 10 11 0 2 -4 4 -10 4 -5 0 -10
-5 -10 -11z"/>
<path d="M1956 2649 c-8 -43 -8 -51 4 -44 6 4 8 10 5 15 -3 5 -1 11 5 15 6 4
8 11 5 16 -4 5 5 9 20 9 23 0 25 -3 20 -30 -3 -16 -1 -30 4 -30 13 0 20 64 7
72 -6 4 -23 8 -37 8 -22 0 -28 -6 -33 -31z"/>
<path d="M1770 2662 c0 -12 58 -27 67 -18 9 9 0 15 -35 22 -20 4 -32 2 -32 -4z"/>
<path d="M1406 2635 c4 -8 8 -15 10 -15 2 0 4 7 4 15 0 8 -4 15 -10 15 -5 0
-7 -7 -4 -15z"/>
<path d="M1560 2640 c0 -5 5 -10 10 -10 6 0 10 5 10 10 0 6 -4 10 -10 10 -5 0
-10 -4 -10 -10z"/>
<path d="M2434 2639 c-3 -6 -15 -7 -27 -4 -16 5 -18 4 -8 -3 11 -8 10 -12 -8
-21 -11 -7 -21 -16 -21 -21 0 -5 15 -1 33 10 17 11 40 20 49 20 25 0 31 17 8
23 -11 3 -23 1 -26 -4z"/>
<path d="M1600 2630 c0 -5 7 -10 15 -10 8 0 15 5 15 10 0 6 -7 10 -15 10 -8 0
-15 -4 -15 -10z"/>
<path d="M1720 2624 c0 -8 5 -12 10 -9 6 3 10 10 10 16 0 5 -4 9 -10 9 -5 0
-10 -7 -10 -16z"/>
<path d="M1846 2608 c-6 -30 -2 -47 9 -36 11 10 17 68 8 68 -6 0 -13 -14 -17
-32z"/>
<path d="M2138 2628 c7 -7 12 -28 12 -47 0 -47 10 -82 21 -75 20 12 -12 134
-35 134 -6 0 -5 -5 2 -12z"/>
<path d="M1880 2620 c0 -5 5 -10 11 -10 5 0 7 5 4 10 -3 6 -8 10 -11 10 -2 0
-4 -4 -4 -10z"/>
<path d="M2297 2624 c-11 -11 5 -34 23 -34 15 0 30 18 30 36 0 6 -46 5 -53 -2z"/>
<path d="M1556 2611 c-4 -7 -5 -15 -2 -18 9 -9 19 4 14 18 -4 11 -6 11 -12 0z"/>
<path d="M2700 2614 c0 -10 28 -33 33 -27 3 3 0 12 -8 19 -14 15 -25 18 -25 8z"/>
<path d="M1601 2578 c-6 -17 -9 -34 -6 -36 7 -8 15 3 20 27 2 11 7 26 10 31 3
6 2 10 -3 10 -6 0 -15 -14 -21 -32z"/>
<path d="M2040 2596 c0 -8 6 -16 14 -19 10 -4 14 0 13 14 -1 21 -27 27 -27 5z"/>
<path d="M2117 2603 c-8 -13 5 -113 14 -113 12 0 11 107 0 115 -5 3 -12 2 -14
-2z"/>
<path d="M2226 2583 c8 -34 10 -37 22 -29 14 8 2 56 -14 56 -11 0 -13 -7 -8
-27z"/>
<path d="M2610 2606 c0 -2 14 -6 30 -8 17 -3 30 -1 30 4 0 4 -13 8 -30 8 -16
0 -30 -2 -30 -4z"/>
<path d="M1680 2587 c-19 -15 -22 -44 -5 -51 8 -3 15 7 19 26 7 37 6 40 -14
25z"/>
<path d="M1870 2590 c0 -5 5 -10 10 -10 6 0 10 5 10 10 0 6 -4 10 -10 10 -5 0
-10 -4 -10 -10z"/>
<path d="M1716 2583 c-13 -13 -6 -35 9 -29 8 3 15 1 15 -4 0 -6 -6 -11 -12
-11 -7 -1 3 -5 22 -8 68 -13 94 8 38 29 -18 6 -40 16 -49 20 -9 5 -20 6 -23 3z"/>
<path d="M2080 2530 c0 -33 4 -60 10 -60 6 0 10 27 10 60 0 33 -4 60 -10 60
-6 0 -10 -27 -10 -60z"/>
<path d="M2527 2583 c-12 -12 -7 -22 8 -17 8 4 15 10 15 15 0 11 -14 12 -23 2z"/>
<path d="M1552 2566 c7 -8 15 -12 17 -11 5 6 -10 25 -20 25 -5 0 -4 -6 3 -14z"/>
<path d="M1630 2569 c0 -5 5 -7 10 -4 6 3 10 8 10 11 0 2 -4 4 -10 4 -5 0 -10
-5 -10 -11z"/>
<path d="M1520 2550 c0 -14 49 -44 58 -36 4 4 -4 16 -18 26 -28 22 -40 25 -40
10z"/>
<path d="M1860 2550 c20 -13 33 -13 25 0 -3 6 -14 10 -23 10 -15 0 -15 -2 -2
-10z"/>
<path d="M1137 2530 c3 -11 7 -20 9 -20 2 0 4 9 4 20 0 11 -4 20 -9 20 -5 0
-7 -9 -4 -20z"/>
<path d="M1620 2539 c0 -5 5 -7 10 -4 6 3 10 8 10 11 0 2 -4 4 -10 4 -5 0 -10
-5 -10 -11z"/>
<path d="M1830 2518 c0 -19 2 -20 10 -8 13 19 13 30 0 30 -5 0 -10 -10 -10
-22z"/>
<path d="M2354 2516 c-10 -8 -17 -17 -14 -19 3 -3 14 1 24 9 11 7 17 16 15 19
-3 3 -14 -2 -25 -9z"/>
<path d="M1850 2500 c0 -12 -7 -20 -17 -20 -21 0 -6 -15 23 -24 16 -5 23 0 32
19 6 14 8 25 3 25 -5 0 -11 -7 -15 -15 -3 -8 -11 -15 -17 -15 -7 0 -5 9 5 25
14 22 15 25 1 25 -8 0 -15 -9 -15 -20z"/>
<path d="M1796 2495 c-3 -8 -1 -15 3 -15 5 0 11 7 15 15 3 8 1 15 -3 15 -5 0
-11 -7 -15 -15z"/>
<path d="M1665 2490 c3 -5 11 -10 16 -10 6 0 7 5 4 10 -3 6 -11 10 -16 10 -6
0 -7 -4 -4 -10z"/>
<path d="M1909 2491 c-2 -13 -4 -22 -11 -41 -12 -30 -28 -83 -28 -91 0 -16 26
2 27 19 0 9 7 38 16 65 8 26 11 49 6 53 -5 3 -10 0 -10 -5z"/>
<path d="M1710 2480 c0 -6 7 -10 15 -10 8 0 15 2 15 4 0 2 -7 6 -15 10 -8 3
-15 1 -15 -4z"/>
<path d="M1750 2466 c0 -8 7 -16 15 -20 8 -3 15 0 15 7 0 8 3 8 9 -2 6 -9 11
-10 15 -2 4 6 -4 15 -19 21 -34 13 -35 13 -35 -4z"/>
<path d="M2315 2450 c-10 -11 -16 -22 -13 -25 3 -3 11 1 18 10 7 8 19 15 27
15 8 0 11 5 8 10 -9 15 -20 12 -40 -10z"/>
<path d="M1645 2440 c-3 -5 -1 -10 4 -10 6 0 11 5 11 10 0 6 -2 10 -4 10 -3 0
-8 -4 -11 -10z"/>
<path d="M1845 2440 c3 -5 11 -10 16 -10 6 0 7 5 4 10 -3 6 -11 10 -16 10 -6
0 -7 -4 -4 -10z"/>
<path d="M1750 2430 c0 -5 5 -10 11 -10 5 0 7 5 4 10 -3 6 -8 10 -11 10 -2 0
-4 -4 -4 -10z"/>
<path d="M1807 2426 c-4 -10 -5 -21 -2 -24 9 -9 17 6 13 25 -3 17 -4 17 -11
-1z"/>
<path d="M710 2421 c0 -3 10 -15 21 -25 18 -15 23 -15 30 -5 12 20 11 29 -3
30 -7 0 -21 2 -30 4 -10 2 -18 0 -18 -4z"/>
<path d="M1708 2421 c8 -5 13 -11 13 -15 -3 -18 0 -20 9 -6 14 22 12 26 -12
27 -16 2 -19 0 -10 -6z"/>
<path d="M2277 2423 c-4 -3 -7 -11 -7 -17 0 -6 5 -5 12 2 6 6 9 14 7 17 -3 3
-9 2 -12 -2z"/>
<path d="M855 2400 c-3 -5 2 -10 12 -10 10 0 29 -3 43 -6 17 -5 22 -3 15 3
-15 16 -63 24 -70 13z"/>
<path d="M1752 2386 c7 -8 17 -12 22 -9 4 3 2 9 -5 14 -22 13 -31 11 -17 -5z"/>
<path d="M1846 2385 c-3 -8 -1 -15 4 -15 6 0 10 7 10 15 0 8 -2 15 -4 15 -2 0
-6 -7 -10 -15z"/>
<path d="M766 2375 c-3 -8 -1 -15 3 -15 5 0 11 7 15 15 3 8 1 15 -3 15 -5 0
-11 -7 -15 -15z"/>
<path d="M940 2371 c0 -23 -33 -33 -66 -21 -16 6 -24 6 -24 -1 0 -6 -14 -9
-35 -6 -38 5 -44 -5 -20 -30 12 -12 19 -13 30 -3 15 12 21 3 16 -24 -1 -5 2
-12 8 -15 5 -3 13 -19 16 -34 6 -24 5 -27 -19 -27 -16 0 -26 6 -26 15 0 8 -7
15 -15 15 -8 0 -15 -8 -15 -19 0 -14 10 -20 41 -25 51 -8 62 -1 54 35 -4 18
-3 29 4 29 15 0 14 33 -1 48 -9 9 -9 12 3 13 7 0 22 2 31 4 20 4 30 -18 21
-42 -10 -26 -26 -40 -41 -35 -10 3 -10 -2 -1 -21 8 -18 17 -23 31 -19 17 4 19
2 13 -19 -11 -33 -22 -39 -84 -39 -47 0 -52 -2 -41 -15 10 -12 10 -19 2 -27
-9 -9 -12 -8 -12 5 0 24 -17 21 -23 -3 -4 -17 0 -20 34 -20 26 0 39 4 39 14 0
15 56 30 73 19 6 -3 7 -1 3 5 -10 17 3 15 20 -3 14 -13 10 -15 -34 -15 -36 0
-52 -4 -56 -16 -11 -30 -6 -34 44 -34 36 0 50 4 50 14 0 15 22 26 48 25 14 0
14 -2 -2 -8 -16 -6 -13 -11 24 -29 24 -12 48 -18 54 -15 5 4 -2 11 -17 16 -32
10 -34 30 -7 64 11 14 20 34 20 44 0 10 4 20 9 23 5 3 7 14 4 24 -3 14 -15 18
-50 19 -26 1 -55 -3 -65 -8 -17 -9 -18 -4 -18 76 0 50 -4 85 -10 85 -5 0 -10
-8 -10 -19z"/>
<path d="M1700 2381 c0 -5 5 -13 10 -16 6 -3 10 -2 10 4 0 5 -4 13 -10 16 -5
3 -10 2 -10 -4z"/>
<path d="M1815 2380 c-3 -5 -1 -10 4 -10 6 0 11 5 11 10 0 6 -2 10 -4 10 -3 0
-8 -4 -11 -10z"/>
<path d="M2223 2360 c-11 -16 -10 -18 2 -14 8 4 15 12 15 20 0 19 -3 18 -17
-6z"/>
<path d="M700 2341 c0 -25 6 -27 13 -6 4 8 2 17 -3 20 -6 4 -10 -3 -10 -14z"/>
<path d="M1770 2340 c0 -5 5 -10 10 -10 6 0 10 5 10 10 0 6 -4 10 -10 10 -5 0
-10 -4 -10 -10z"/>
<path d="M720 2320 c0 -5 7 -10 16 -10 8 0 12 5 9 10 -3 6 -10 10 -16 10 -5 0
-9 -4 -9 -10z"/>
<path d="M1190 2320 c0 -5 5 -10 10 -10 6 0 10 5 10 10 0 6 -4 10 -10 10 -5 0
-10 -4 -10 -10z"/>
<path d="M2170 2309 c0 -5 5 -7 10 -4 6 3 10 8 10 11 0 2 -4 4 -10 4 -5 0 -10
-5 -10 -11z"/>
<path d="M1320 2280 c12 -16 27 -30 35 -30 8 0 1 12 -15 30 -15 17 -31 30 -35
30 -3 0 3 -13 15 -30z"/>
<path d="M1211 2276 l-22 -23 40 -42 c41 -43 55 -49 67 -29 5 7 2 9 -9 5 -10
-4 -26 6 -46 29 -34 38 -41 57 -12 30 16 -15 20 -15 30 -2 11 14 16 13 37 -1
15 -9 24 -11 24 -4 0 6 -4 11 -8 11 -5 0 -22 11 -38 25 -35 31 -35 31 -63 1z
m39 -6 c0 -5 -5 -10 -11 -10 -5 0 -7 5 -4 10 3 6 8 10 11 10 2 0 4 -4 4 -10z"/>
<path d="M2150 2280 c0 -5 5 -10 10 -10 6 0 10 5 10 10 0 6 -4 10 -10 10 -5 0
-10 -4 -10 -10z"/>
<path d="M2040 2245 c0 -8 2 -15 4 -15 2 0 6 7 10 15 3 8 1 15 -4 15 -6 0 -10
-7 -10 -15z"/>
<path d="M1840 2239 c0 -5 5 -7 10 -4 6 3 10 8 10 11 0 2 -4 4 -10 4 -5 0 -10
-5 -10 -11z"/>
<path d="M1156 2231 c-3 -5 1 -14 8 -20 10 -8 16 -9 21 -1 3 5 1 10 -5 10 -6
0 -8 5 -5 10 3 6 2 10 -4 10 -5 0 -12 -4 -15 -9z"/>
<path d="M1265 2220 c3 -5 11 -10 16 -10 6 0 7 5 4 10 -3 6 -11 10 -16 10 -6
0 -7 -4 -4 -10z"/>
<path d="M1360 2211 c0 -5 5 -13 10 -16 6 -3 10 -2 10 4 0 5 -4 13 -10 16 -5
3 -10 2 -10 -4z"/>
<path d="M1855 2210 c-3 -5 -1 -10 4 -10 6 0 11 5 11 10 0 6 -2 10 -4 10 -3 0
-8 -4 -11 -10z"/>
<path d="M1143 2192 c11 -12 13 -22 6 -34 -5 -9 -6 -23 -3 -31 7 -18 34 -31
34 -16 0 5 -7 12 -15 15 -8 4 -15 11 -15 16 0 6 7 7 16 4 14 -5 15 -4 5 8 -9
11 -9 15 1 19 9 3 7 9 -7 21 -27 21 -42 20 -22 -2z"/>
<path d="M1100 2170 c0 -5 5 -10 10 -10 6 0 10 5 10 10 0 6 -4 10 -10 10 -5 0
-10 -4 -10 -10z"/>
<path d="M1410 2170 c0 -5 5 -10 11 -10 5 0 7 5 4 10 -3 6 -8 10 -11 10 -2 0
-4 -4 -4 -10z"/>
<path d="M1750 2170 c0 -5 5 -10 10 -10 6 0 10 5 10 10 0 6 -4 10 -10 10 -5 0
-10 -4 -10 -10z"/>
<path d="M1780 2170 c0 -5 5 -10 10 -10 6 0 10 5 10 10 0 6 -4 10 -10 10 -5 0
-10 -4 -10 -10z"/>
<path d="M1223 2134 c-10 -21 -22 -43 -28 -47 -6 -5 -2 -6 9 -3 13 5 17 2 13
-8 -3 -8 0 -19 7 -25 17 -14 46 -4 46 16 0 13 -3 13 -15 3 -13 -10 -15 -9 -15
8 0 12 -5 24 -10 27 -6 4 -2 13 10 23 14 12 17 21 11 31 -7 12 -14 6 -28 -25z"/>
<path d="M1290 2151 c0 -11 26 -22 34 -14 3 3 3 10 0 14 -7 12 -34 11 -34 0z"/>
<path d="M1390 2150 c0 -5 5 -10 11 -10 5 0 7 5 4 10 -3 6 -8 10 -11 10 -2 0
-4 -4 -4 -10z"/>
<path d="M1440 2150 c0 -5 5 -10 11 -10 5 0 7 5 4 10 -3 6 -8 10 -11 10 -2 0
-4 -4 -4 -10z"/>
<path d="M1571 2139 c-19 -15 -20 -20 -8 -25 23 -8 45 8 38 28 -5 15 -8 15
-30 -3z"/>
<path d="M1276 2121 c-3 -5 4 -11 16 -14 30 -8 35 -1 9 12 -11 6 -22 7 -25 2z"/>
<path d="M1356 2113 c-7 -16 -1 -22 38 -45 18 -10 18 -11 2 -20 -10 -5 -29 -7
-44 -4 l-27 6 24 -20 c13 -11 18 -20 12 -20 -7 0 -9 -4 -6 -10 6 -10 -8 -14
-34 -10 -13 1 -13 -1 -2 -14 19 -22 24 -20 46 17 10 17 27 38 37 45 10 7 16
18 13 23 -3 5 1 6 9 3 9 -4 16 -1 16 6 0 7 -8 10 -20 7 -13 -3 -20 0 -20 9 0
8 -10 14 -22 15 -13 0 -17 3 -10 6 14 5 16 23 3 23 -5 0 -12 -8 -15 -17z"/>
<path d="M1405 2110 c20 -22 56 -24 62 -4 2 6 -3 14 -12 18 -9 3 -13 2 -10 -3
10 -17 -15 -22 -31 -7 -23 23 -30 19 -9 -4z"/>
<path d="M1280 2079 c0 -5 5 -7 10 -4 6 3 10 8 10 11 0 2 -4 4 -10 4 -5 0 -10
-5 -10 -11z"/>
<path d="M1352 2069 c2 -7 10 -15 17 -17 8 -3 12 1 9 9 -2 7 -10 15 -17 17 -8
3 -12 -1 -9 -9z"/>
<path d="M1450 2070 c0 -5 5 -10 10 -10 6 0 10 5 10 10 0 6 -4 10 -10 10 -5 0
-10 -4 -10 -10z"/>
<path d="M1482 2068 c-14 -14 -16 -28 -3 -28 9 0 24 30 18 36 -2 2 -9 -2 -15
-8z"/>
<path d="M1515 2050 c3 -5 8 -10 11 -10 2 0 4 5 4 10 0 6 -5 10 -11 10 -5 0
-7 -4 -4 -10z"/>
<path d="M810 2040 c0 -12 139 -10 146 2 3 4 -29 8 -70 8 -45 0 -76 -4 -76
-10z"/>
<path d="M1110 2040 c0 -5 5 -10 11 -10 5 0 7 5 4 10 -3 6 -8 10 -11 10 -2 0
-4 -4 -4 -10z"/>
<path d="M1283 2031 c-10 -15 -9 -20 2 -25 22 -8 47 5 41 21 -3 8 -6 17 -6 19
0 12 -27 1 -37 -15z"/>
<path d="M1422 2034 c-11 -12 -11 -18 -2 -29 7 -8 16 -13 20 -10 4 3 10 -2 14
-10 3 -8 13 -15 23 -15 13 0 10 7 -15 26 -26 21 -30 29 -21 40 16 19 -3 17
-19 -2z"/>
<path d="M2000 2040 c0 -6 7 -10 15 -10 8 0 15 2 15 4 0 2 -7 6 -15 10 -8 3
-15 1 -15 -4z"/>
<path d="M970 2035 c0 -10 64 -34 74 -28 5 3 -6 12 -24 19 -34 15 -50 17 -50
9z"/>
<path d="M1460 2020 c0 -7 24 -20 36 -20 13 0 1 19 -16 23 -11 3 -20 2 -20 -3z"/>
<path d="M1875 2020 c-4 -6 6 -10 22 -10 22 0 25 2 13 10 -19 12 -27 12 -35 0z"/>
<path d="M1145 2010 c3 -5 8 -10 11 -10 2 0 4 5 4 10 0 6 -5 10 -11 10 -5 0
-7 -4 -4 -10z"/>
<path d="M1105 2000 c3 -5 8 -10 11 -10 2 0 4 5 4 10 0 6 -5 10 -11 10 -5 0
-7 -4 -4 -10z"/>
<path d="M865 1990 c-33 -3 -55 -8 -50 -11 12 -7 123 -4 131 3 10 10 -21 13
-81 8z"/>
<path d="M1870 1990 c0 -5 6 -10 14 -10 8 0 18 5 21 10 3 6 -3 10 -14 10 -12
0 -21 -4 -21 -10z"/>
<path d="M980 1975 c7 -8 20 -15 29 -15 13 1 13 3 -3 15 -26 19 -42 19 -26 0z"/>
<path d="M1056 1983 c-3 -4 -6 -11 -6 -16 0 -6 3 -7 7 -4 3 4 11 -1 18 -10 7
-9 15 -12 18 -6 7 11 -28 44 -37 36z"/>
<path d="M1090 1980 c0 -13 18 -22 24 -11 3 5 -1 11 -9 15 -8 3 -15 1 -15 -4z"/>
<path d="M1137 1983 c-2 -5 -3 -16 -2 -25 2 -12 -2 -15 -13 -11 -14 5 -14 3 2
-13 13 -14 20 -16 23 -6 9 24 34 41 51 35 9 -3 14 -3 11 1 -4 4 -16 8 -28 11
-11 2 -25 6 -30 10 -5 3 -12 2 -14 -2z"/>
<path d="M1376 1975 c-6 -17 9 -21 19 -5 9 15 25 2 18 -15 -3 -8 -1 -15 5 -15
5 0 13 7 16 16 8 22 8 26 -3 19 -5 -3 -12 -1 -16 5 -9 15 -32 12 -39 -5z"/>
<path d="M1440 1935 c-13 -25 -30 -33 -30 -15 0 6 -9 10 -20 10 -17 0 -19 -2
-8 -14 7 -8 16 -12 20 -10 4 2 9 0 13 -6 4 -6 11 -5 19 3 8 6 12 15 10 18 -2
4 3 9 11 13 8 3 15 10 15 16 0 18 -16 10 -30 -15z"/>
<path d="M876 1942 c-6 -10 12 -71 22 -74 4 -2 10 16 13 40 4 36 3 42 -12 42
-10 0 -20 -3 -23 -8z m21 -54 c-3 -7 -5 -2 -5 12 0 14 2 19 5 13 2 -7 2 -19 0
-25z"/>
<path d="M1513 1925 c-7 -8 -13 -23 -13 -34 0 -11 -6 -21 -12 -24 -7 -2 -10
-8 -6 -12 11 -12 40 16 34 32 -3 8 -1 11 4 8 6 -3 10 5 10 19 0 30 -1 30 -17
11z"/>
<path d="M1025 1920 c3 -5 8 -10 11 -10 2 0 4 5 4 10 0 6 -5 10 -11 10 -5 0
-7 -4 -4 -10z"/>
<path d="M1109 1909 c16 -18 18 -25 8 -40 -7 -11 -17 -19 -24 -19 -6 0 -14 -4
-18 -9 -3 -6 3 -9 14 -8 11 0 24 11 30 24 6 13 15 23 20 23 5 0 17 12 26 28
l18 27 -22 -20 c-21 -18 -23 -18 -32 -2 -6 9 -17 17 -25 17 -12 0 -11 -5 5
-21z"/>
<path d="M1230 1921 c0 -7 -5 -11 -12 -9 -7 3 -25 -8 -40 -24 l-28 -29 27 -24
c26 -22 26 -24 5 -18 -12 3 -25 9 -28 14 -3 5 -10 9 -15 9 -6 0 3 -11 18 -24
24 -21 30 -23 42 -11 13 13 12 18 -9 40 -13 14 -19 25 -13 25 5 0 18 -9 28
-20 10 -11 23 -20 28 -20 5 0 -2 11 -17 25 -27 25 -27 51 -1 41 13 -5 30 22
20 32 -3 3 -5 0 -5 -7z"/>
<path d="M1340 1920 c0 -5 6 -10 13 -10 8 0 7 -4 -3 -10 -12 -8 -10 -10 9 -10
23 0 24 1 6 20 -20 23 -25 24 -25 10z"/>
<path d="M982 1908 c-7 -7 -12 -19 -12 -27 0 -11 5 -8 16 7 18 25 15 39 -4 20z"/>
<path d="M1080 1899 c0 -5 5 -7 10 -4 6 3 10 8 10 11 0 2 -4 4 -10 4 -5 0 -10
-5 -10 -11z"/>
<path d="M1247 1903 c-11 -11 -8 -23 6 -20 6 1 11 -4 10 -10 -2 -7 2 -13 7
-13 13 0 12 11 -4 32 -7 10 -16 15 -19 11z"/>
<path d="M858 1877 c-3 -19 -2 -25 4 -19 6 6 8 18 6 28 -3 14 -5 12 -10 -9z"/>
<path d="M1050 1891 c0 -13 29 -35 37 -28 7 8 -15 37 -28 37 -5 0 -9 -4 -9 -9z"/>
<path d="M952 1851 c-7 -4 -25 -6 -39 -3 -19 4 -24 2 -18 -8 5 -7 19 -10 39
-7 29 5 28 5 -9 -13 -48 -22 -34 -26 24 -5 22 8 41 12 41 10 0 -2 3 -10 6 -19
4 -11 1 -16 -10 -16 -9 0 -16 5 -16 12 0 6 -2 9 -5 6 -11 -10 6 -34 24 -35 26
-2 34 23 18 55 -13 29 -34 37 -55 23z"/>
<path d="M1257 1830 c-20 -24 -16 -35 14 -43 19 -5 19 -4 6 11 -11 12 -13 22
-6 35 13 23 7 22 -14 -3z"/>
<path d="M1655 1840 c-3 -6 1 -7 9 -4 18 7 21 14 7 14 -6 0 -13 -4 -16 -10z"/>
<path d="M1560 1829 c0 -5 5 -7 11 -3 8 4 9 0 4 -15 -7 -22 1 -26 23 -12 11 6
10 11 -3 25 -19 18 -35 21 -35 5z"/>
<path d="M1280 1820 c0 -5 5 -10 11 -10 5 0 7 5 4 10 -3 6 -8 10 -11 10 -2 0
-4 -4 -4 -10z"/>
<path d="M1446 1786 c-27 -47 -48 -96 -41 -96 20 0 75 37 75 51 0 10 6 20 13
22 10 4 10 6 0 6 -7 1 -13 10 -13 21 0 14 5 18 16 13 12 -4 15 -2 12 8 -10 30
-36 19 -62 -25z"/>
<path d="M1680 1820 c0 -5 5 -10 11 -10 5 0 7 5 4 10 -3 6 -8 10 -11 10 -2 0
-4 -4 -4 -10z"/>
<path d="M1070 1810 c0 -5 5 -10 11 -10 5 0 7 5 4 10 -3 6 -8 10 -11 10 -2 0
-4 -4 -4 -10z"/>
<path d="M1115 1810 c-3 -5 -3 -15 1 -22 5 -8 2 -9 -9 -5 -10 3 -17 2 -17 -4
0 -15 33 -24 38 -10 3 10 6 10 12 2 3 -7 14 -9 23 -5 15 5 15 9 -5 30 -25 26
-34 29 -43 14z"/>
<path d="M912 1791 c-8 -5 -12 -16 -10 -24 2 -11 7 -14 16 -8 8 5 12 16 10 24
-2 11 -7 14 -16 8z"/>
<path d="M1030 1785 c-9 -10 -9 -15 -1 -15 6 0 11 4 11 10 0 5 7 6 17 3 11 -4
14 -3 9 5 -10 16 -21 15 -36 -3z"/>
<path d="M1222 1791 c2 -7 7 -12 11 -12 12 1 9 15 -3 20 -7 2 -11 -2 -8 -8z"/>
<path d="M1190 1780 c0 -5 6 -10 13 -10 20 0 51 -41 38 -50 -9 -5 -7 -11 5
-21 16 -12 17 -12 11 3 -3 9 -2 18 3 20 5 2 7 13 3 26 -3 13 -11 21 -19 18 -7
-3 -18 2 -24 10 -14 16 -30 19 -30 4z"/>
<path d="M1670 1776 c0 -15 48 -28 56 -15 3 5 -7 14 -21 19 -34 13 -35 13 -35
-4z"/>
<path d="M1530 1760 c-12 -8 -11 -10 8 -10 12 0 22 5 22 10 0 13 -11 13 -30 0z"/>
<path d="M980 1749 c0 -4 11 -6 24 -5 13 0 22 4 20 8 -6 9 -44 6 -44 -3z"/>
<path d="M1070 1748 c0 -9 6 -18 13 -21 6 -2 9 -8 5 -12 -4 -4 -16 -2 -25 6
-17 13 -17 13 -3 -5 14 -18 13 -19 -4 -13 -16 6 -17 5 -6 -8 8 -10 9 -15 1
-15 -6 0 -11 -7 -11 -15 0 -8 -5 -15 -11 -15 -7 0 -9 9 -6 21 5 20 5 20 -14 3
-19 -17 -19 -17 3 -29 17 -8 22 -19 21 -39 -2 -21 2 -26 13 -22 9 3 18 6 20 6
2 0 -3 11 -11 24 -15 22 -14 26 3 56 13 20 22 27 27 20 4 -6 0 -19 -8 -28 -13
-15 -13 -19 0 -31 13 -11 14 -10 11 9 -2 13 3 25 9 27 14 5 37 -43 27 -58 -3
-5 -1 -9 3 -9 5 0 14 9 20 19 10 17 7 23 -24 50 -36 30 -41 57 -6 30 10 -7 7
0 -7 16 -14 17 -28 34 -32 40 -5 5 -8 2 -8 -7z"/>
<path d="M1125 1750 c-10 -16 14 -50 35 -50 11 0 20 5 20 11 0 6 -9 9 -20 6
-19 -5 -27 3 -14 16 8 7 54 -13 54 -25 0 -4 4 -8 9 -8 14 0 8 49 -7 55 -8 3
-10 0 -6 -6 4 -8 -1 -9 -15 -4 -13 4 -29 1 -38 -7 -15 -11 -16 -11 -10 5 7 18
2 23 -8 7z"/>
<path d="M1735 1750 c-3 -5 1 -10 10 -10 12 0 15 -6 10 -20 -3 -11 -3 -20 2
-20 5 0 9 9 10 19 2 24 -22 47 -32 31z"/>
<path d="M929 1737 c-15 -12 -15 -14 2 -36 14 -18 19 -19 19 -7 0 9 -4 16 -10
16 -5 0 -10 5 -10 10 0 6 9 10 20 10 11 0 20 5 20 10 0 14 -21 12 -41 -3z"/>
<path d="M990 1720 c0 -5 7 -7 15 -4 8 4 15 8 15 10 0 2 -7 4 -15 4 -8 0 -15
-4 -15 -10z"/>
<path d="M1270 1710 c0 -5 5 -10 10 -10 6 0 10 5 10 10 0 6 -4 10 -10 10 -5 0
-10 -4 -10 -10z"/>
<path d="M1783 1694 c-7 -19 11 -41 21 -25 4 6 3 11 -3 11 -6 0 -8 7 -5 15 4
8 3 15 0 15 -4 0 -9 -7 -13 -16z"/>
<path d="M971 1684 c0 -11 3 -14 6 -6 3 7 2 16 -1 19 -3 4 -6 -2 -5 -13z"/>
<path d="M1538 1693 c-10 -2 -18 -9 -18 -14 0 -6 9 -5 22 2 18 10 20 9 15 -5
-4 -10 -3 -15 3 -11 12 7 14 36 3 34 -5 -1 -16 -3 -25 -6z"/>
<path d="M1195 1670 c21 -24 32 -25 32 -5 0 8 -4 12 -8 9 -4 -2 -10 0 -14 6
-3 5 -11 10 -17 10 -6 0 -3 -9 7 -20z"/>
<path d="M1455 1683 c-11 -3 -31 -16 -44 -29 -13 -13 -28 -24 -34 -24 -6 0 -8
-2 -5 -6 3 -3 20 3 37 14 17 10 28 22 24 25 -3 4 6 7 20 7 15 0 27 -4 27 -8 0
-14 -108 -65 -124 -59 -9 4 -16 4 -16 1 0 -2 10 -8 23 -13 21 -8 67 5 67 19 0
4 16 15 35 26 34 18 46 34 24 34 -5 0 -7 5 -4 10 6 11 3 11 -30 3z"/>
<path d="M1600 1675 c9 -11 9 -15 1 -15 -7 0 -9 -5 -6 -11 9 -13 15 -7 20 20
3 14 -1 21 -12 21 -13 0 -13 -3 -3 -15z"/>
<path d="M1661 1671 c24 -20 24 -20 4 -35 -18 -14 -18 -15 -2 -16 9 0 17 -6
17 -13 0 -8 8 -21 18 -30 31 -28 35 -19 8 14 -19 22 -24 35 -17 47 7 12 3 21
-11 34 -12 10 -25 18 -31 18 -5 0 1 -9 14 -19z"/>
<path d="M1165 1655 c39 -32 58 -32 22 0 -15 14 -33 25 -40 25 -7 -1 2 -12 18
-25z"/>
<path d="M1282 1668 c-14 -14 -16 -28 -3 -28 9 0 24 30 18 36 -2 2 -9 -2 -15
-8z"/>
<path d="M2256 1661 c-4 -7 -5 -15 -2 -18 9 -9 19 4 14 18 -4 11 -6 11 -12 0z"/>
<path d="M1519 1658 c-10 -33 1 -52 16 -28 3 6 1 10 -5 10 -6 0 -8 5 -5 10 3
6 4 10 1 10 -3 0 -6 -1 -7 -2z"/>
<path d="M1629 1643 c-13 -17 -13 -17 6 -3 11 8 22 16 24 17 2 2 0 3 -6 3 -6
0 -17 -8 -24 -17z"/>
<path d="M1770 1645 c0 -10 43 -44 55 -44 6 0 1 7 -10 15 -19 16 -19 16 5 10
24 -7 24 -7 5 9 -12 10 -21 12 -23 5 -3 -8 -8 -7 -18 1 -8 6 -14 8 -14 4z"/>
<path d="M1557 1634 c-10 -11 -9 -26 2 -19 5 3 12 1 15 -4 3 -5 -7 -11 -22
-14 -15 -3 -28 -1 -30 4 -6 14 -19 11 -19 -5 0 -8 9 -17 19 -19 10 -3 18 0 18
6 0 6 3 8 6 4 7 -6 64 19 64 29 0 3 -5 2 -11 -1 -6 -4 -16 0 -22 10 -7 9 -16
13 -20 9z"/>
<path d="M1700 1633 c0 -18 38 -59 46 -50 4 4 -4 20 -19 35 -15 14 -27 22 -27
15z"/>
<path d="M1868 1628 c7 -7 12 -20 12 -30 0 -10 4 -18 9 -18 6 0 6 12 0 30 -6
17 -16 30 -22 30 -7 0 -7 -4 1 -12z"/>
<path d="M1471 1621 c-8 -6 -9 -11 -3 -15 6 -3 14 -1 17 5 9 14 2 20 -14 10z"/>
<path d="M2300 1610 c0 -15 21 -23 32 -12 6 6 2 11 -11 15 -12 3 -21 1 -21 -3z"/>
<path d="M1610 1595 c-7 -9 -10 -18 -6 -22 3 -3 6 -1 6 5 0 7 5 12 10 12 6 0
10 -8 10 -18 0 -11 8 -26 18 -35 27 -25 39 -20 15 6 -12 13 -19 31 -17 45 5
26 -17 30 -36 7z"/>
<path d="M1900 1600 c0 -5 5 -10 10 -10 6 0 10 5 10 10 0 6 -4 10 -10 10 -5 0
-10 -4 -10 -10z"/>
<path d="M1960 1600 c0 -5 5 -10 10 -10 6 0 10 5 10 10 0 6 -4 10 -10 10 -5 0
-10 -4 -10 -10z"/>
<path d="M1075 1580 c-3 -5 -2 -10 4 -10 5 0 13 5 16 10 3 6 2 10 -4 10 -5 0
-13 -4 -16 -10z"/>
<path d="M1430 1579 c0 -5 5 -7 10 -4 6 3 10 8 10 11 0 2 -4 4 -10 4 -5 0 -10
-5 -10 -11z"/>
<path d="M1660 1582 c0 -8 7 -20 15 -29 9 -8 19 -12 22 -9 4 4 -3 16 -15 29
-13 13 -22 16 -22 9z"/>
<path d="M1923 1583 c-7 -2 -13 -10 -13 -16 0 -8 3 -8 11 0 6 6 18 9 27 6 10
-4 13 -2 8 5 -8 13 -13 14 -33 5z"/>
<path d="M2017 1583 c-13 -13 -7 -20 17 -20 21 0 23 2 11 13 -15 16 -19 17
-28 7z"/>
<path d="M1319 1569 c-12 -8 -12 -10 1 -8 27 3 38 -1 54 -16 13 -14 15 -13 13
5 -1 11 -6 19 -12 16 -5 -2 -17 0 -26 5 -8 4 -22 3 -30 -2z"/>
<path d="M2120 1569 c0 -5 5 -7 10 -4 6 3 10 8 10 11 0 2 -4 4 -10 4 -5 0 -10
-5 -10 -11z"/>
<path d="M1562 1554 c-7 -8 -19 -11 -25 -7 -7 4 -6 0 2 -10 7 -9 16 -17 19
-17 3 0 3 3 -1 6 -3 4 4 15 16 25 12 10 18 18 12 18 -5 0 -16 -6 -23 -15z"/>
<path d="M1745 1560 c-3 -5 -1 -10 5 -10 6 0 8 -5 5 -10 -4 -6 -10 -8 -15 -5
-4 3 -16 2 -25 -1 -14 -6 -14 -9 6 -30 23 -25 59 -23 38 2 -9 12 -8 17 6 28
10 7 15 18 11 24 -9 15 -23 15 -31 2z m3 -66 c-4 -3 -12 5 -18 18 -12 22 -12
22 6 6 10 -10 15 -20 12 -24z"/>
<path d="M1958 1562 c-10 -2 -18 -8 -18 -13 0 -6 9 -8 19 -4 11 3 22 1 26 -5
3 -5 1 -10 -5 -10 -6 0 -8 -5 -4 -11 4 -8 9 -7 15 2 12 18 11 42 0 35 -5 -4
-11 -3 -13 2 -1 4 -11 6 -20 4z"/>
<path d="M2300 1562 c0 -11 22 -32 32 -32 5 0 4 9 -2 20 -11 20 -30 28 -30 12z"/>
<path d="M1609 1542 c12 -22 41 -48 41 -36 -1 11 -36 54 -44 54 -4 0 -2 -8 3
-18z"/>
<path d="M1797 1554 c-4 -4 13 -26 37 -50 24 -23 41 -46 37 -50 -3 -4 0 -4 7
0 11 6 8 14 -11 35 -13 14 -33 36 -44 49 -11 12 -22 19 -26 16z"/>
<path d="M1311 1528 c-5 -13 -6 -25 -3 -28 2 -3 7 1 9 8 3 6 9 10 14 7 5 -4 6
1 3 9 -9 23 1 20 38 -14 20 -19 27 -30 18 -30 -9 0 0 -13 20 -30 35 -30 35
-30 -12 -34 -30 -2 -25 -46 4 -46 6 0 4 7 -3 17 -13 15 -12 15 8 3 11 -8 19
-20 16 -27 -3 -7 -1 -13 5 -13 6 0 9 8 8 18 -2 9 2 21 8 25 6 5 3 6 -8 3 -19
-7 -19 -6 -2 13 18 19 17 21 -10 46 -18 17 -23 25 -11 21 29 -9 18 8 -29 42
-53 38 -62 39 -73 10z"/>
<path d="M1580 1527 c0 -16 38 -53 45 -45 3 3 -1 11 -10 18 -8 7 -15 19 -15
26 0 8 -4 14 -10 14 -5 0 -10 -6 -10 -13z"/>
<path d="M2015 1530 c-3 -5 -1 -10 4 -10 6 0 11 5 11 10 0 6 -2 10 -4 10 -3 0
-8 -4 -11 -10z"/>
<path d="M2120 1530 c0 -5 -8 -7 -17 -4 -14 5 -15 4 -4 -4 7 -5 21 -8 31 -5 9
3 24 -2 33 -11 13 -14 16 -14 27 0 7 8 11 16 9 18 -10 9 -79 14 -79 6z"/>
<path d="M1429 1501 c34 -31 47 -39 36 -22 -3 5 0 13 6 16 6 5 3 13 -11 22
-12 8 -24 12 -27 9 -4 -3 -1 -6 5 -6 7 0 12 -5 12 -11 0 -7 -11 -5 -27 6 -24
14 -23 12 6 -14z"/>
<path d="M1925 1520 c3 -5 8 -10 11 -10 2 0 4 5 4 10 0 6 -5 10 -11 10 -5 0
-7 -4 -4 -10z"/>
<path d="M2360 1515 c-10 -12 -10 -15 3 -15 19 0 31 16 18 24 -5 3 -14 -1 -21
-9z"/>
<path d="M1497 1500 c-3 -11 -1 -23 4 -26 5 -3 9 2 9 11 0 15 1 15 16 1 8 -9
20 -16 25 -16 5 0 9 -4 9 -10 0 -5 -8 -6 -17 -3 -16 6 -16 5 -5 -10 8 -9 11
-20 8 -25 -3 -6 5 -13 19 -16 14 -4 25 -11 25 -16 0 -5 -8 -7 -17 -3 -11 4 -7
-4 10 -20 15 -15 31 -27 35 -27 4 0 -2 7 -12 15 -16 12 -17 18 -8 27 9 9 12 9
12 0 0 -6 10 -17 23 -23 l22 -12 -20 23 c-11 12 -33 29 -48 37 -22 11 -28 19
-23 37 4 16 -3 28 -28 48 -32 26 -34 26 -39 8z"/>
<path d="M1170 1501 c0 -5 5 -13 10 -16 6 -3 10 -2 10 4 0 5 -4 13 -10 16 -5
3 -10 2 -10 -4z"/>
<path d="M1675 1501 c-3 -5 0 -13 6 -17 8 -4 9 -3 5 4 -4 7 -3 12 3 12 6 0 15
-10 22 -22 10 -18 9 -20 -5 -15 -10 4 -15 3 -11 -3 3 -6 1 -10 -5 -10 -6 0 -8
-5 -4 -11 5 -8 9 -8 14 1 6 9 13 4 26 -16 10 -16 21 -31 25 -34 3 -3 9 -12 12
-20 4 -12 6 -12 6 2 1 9 -10 29 -24 44 -14 15 -23 34 -20 42 3 8 -2 23 -11 33
-19 21 -30 24 -39 10z"/>
<path d="M1800 1498 c0 -9 11 -25 25 -36 28 -22 32 -32 11 -32 -8 0 -24 12
-36 28 -15 19 -18 21 -10 5 5 -12 15 -25 20 -28 17 -10 11 -22 -10 -20 -10 1
-28 10 -40 20 -31 28 -24 10 10 -25 17 -17 30 -27 30 -23 0 5 14 17 30 26 17
10 30 21 30 25 -1 4 -14 23 -30 42 -20 23 -30 29 -30 18z"/>
<path d="M2024 1498 c-3 -5 8 -7 23 -6 17 1 42 -7 60 -20 33 -23 43 -27 43
-14 0 11 -82 51 -103 50 -10 -1 -20 -5 -23 -10z"/>
<path d="M1644 1477 c-7 -9 -4 -18 11 -35 l21 -22 -1 24 c0 32 -16 48 -31 33z"/>
<path d="M2050 1471 c0 -6 14 -17 30 -26 17 -9 30 -11 30 -6 0 6 -13 17 -30
26 -16 9 -30 11 -30 6z"/>
<path d="M1760 1463 c0 -6 8 -17 18 -24 16 -13 16 -13 2 6 -8 11 -16 22 -17
24 -2 2 -3 0 -3 -6z"/>
<path d="M1502 1443 c-16 -29 -15 -32 8 -30 22 1 22 3 11 32 -8 19 -8 19 -19
-2z"/>
<path d="M2100 1411 c0 -6 5 -13 10 -16 6 -3 10 1 10 9 0 9 -4 16 -10 16 -5 0
-10 -4 -10 -9z"/>
<path d="M2182 1413 c-6 -2 -10 -9 -7 -13 7 -11 35 -2 35 11 0 10 -8 10 -28 2z"/>
<path d="M1625 1400 c3 -5 8 -10 11 -10 2 0 4 5 4 10 0 6 -5 10 -11 10 -5 0
-7 -4 -4 -10z"/>
<path d="M1496 1384 c-3 -8 0 -11 8 -8 8 3 17 1 21 -5 3 -6 12 -11 18 -11 7 0
4 6 -5 14 -10 7 -16 15 -13 18 3 2 -2 5 -10 5 -8 0 -16 -6 -19 -13z"/>
<path d="M1503 1345 c0 -8 7 -17 14 -19 8 -3 11 -1 8 4 -3 6 -1 10 5 10 6 0 8
5 5 10 -9 15 -32 12 -32 -5z"/>
<path d="M920 815 c0 -9 5 -15 11 -13 6 2 11 8 11 13 0 5 -5 11 -11 13 -6 2
-11 -4 -11 -13z"/>
<path d="M1000 814 c0 -8 5 -12 10 -9 6 4 8 11 5 16 -9 14 -15 11 -15 -7z"/>
<path d="M1080 816 c-27 -33 18 -72 48 -42 13 13 14 20 6 34 -15 23 -38 26
-54 8z"/>
<path d="M2060 816 c0 -9 5 -16 10 -16 6 0 10 4 10 9 0 6 -4 13 -10 16 -5 3
-10 -1 -10 -9z"/>
<path d="M2222 821 c2 -7 7 -12 11 -12 12 1 9 15 -3 20 -7 2 -11 -2 -8 -8z"/>
<path d="M2360 816 c-27 -33 18 -72 48 -42 13 13 14 20 6 34 -15 23 -38 26
-54 8z"/>
<path d="M2470 796 c0 -39 18 -48 41 -20 15 18 2 47 -25 52 -12 3 -16 -4 -16
-32z"/>
<path d="M880 616 c-27 -33 18 -72 48 -42 13 13 14 20 6 34 -15 23 -38 26 -54
8z"/>
<path d="M1170 614 c0 -8 5 -12 10 -9 6 4 8 11 5 16 -9 14 -15 11 -15 -7z"/>
<path d="M1350 595 c0 -24 5 -35 15 -35 10 0 15 11 15 35 0 24 -5 35 -15 35
-10 0 -15 -11 -15 -35z"/>
<path d="M1535 609 c-4 -11 -4 -23 0 -27 7 -7 25 17 25 36 0 20 -18 14 -25 -9z"/>
<path d="M1950 616 c-27 -33 18 -72 48 -42 13 13 14 20 6 34 -15 23 -38 26
-54 8z"/>
<path d="M2240 614 c0 -8 5 -12 10 -9 6 4 8 11 5 16 -9 14 -15 11 -15 -7z"/>
<path d="M2420 595 c0 -24 5 -35 15 -35 10 0 15 11 15 35 0 24 -5 35 -15 35
-10 0 -15 -11 -15 -35z"/>
<path d="M2605 609 c-4 -11 -4 -23 0 -27 7 -7 25 17 25 36 0 20 -18 14 -25 -9z"/>
</g>
</svg>
